<?xml version="1.0" encoding="UTF-8" standalone="no"?>
<svg
   xmlns:osb="http://www.openswatchbook.org/uri/2009/osb"
   xmlns:dc="http://purl.org/dc/elements/1.1/"
   xmlns:cc="http://creativecommons.org/ns#"
   xmlns:rdf="http://www.w3.org/1999/02/22-rdf-syntax-ns#"
   xmlns:svg="http://www.w3.org/2000/svg"
   xmlns="http://www.w3.org/2000/svg"
   xmlns:xlink="http://www.w3.org/1999/xlink"
   xmlns:sodipodi="http://sodipodi.sourceforge.net/DTD/sodipodi-0.dtd"
   xmlns:inkscape="http://www.inkscape.org/namespaces/inkscape"
   viewBox="0 0 192 192"
   height="256"
   width="256"
   version="1.0"
   id="svg22"
   sodipodi:docname="monacoin-face-mouth-red.svg"
   inkscape:version="0.92.4 (5da689c313, 2019-01-14)"
   inkscape:export-filename="/tmp/work/MonaCoin.Icon.20220521092535/docs/asset/image/monacoin-face-mouth-red.svg.png"
   inkscape:export-xdpi="96"
   inkscape:export-ydpi="96">
  <metadata
     id="metadata26">
    <rdf:RDF>
      <cc:Work
         rdf:about="">
        <dc:format>image/svg+xml</dc:format>
        <dc:type
           rdf:resource="http://purl.org/dc/dcmitype/StillImage" />
        <dc:title></dc:title>
      </cc:Work>
    </rdf:RDF>
  </metadata>
  <sodipodi:namedview
     pagecolor="#ffffff"
     bordercolor="#666666"
     borderopacity="1"
     objecttolerance="10"
     gridtolerance="10"
     guidetolerance="10"
     inkscape:pageopacity="0"
     inkscape:pageshadow="2"
     inkscape:window-width="1920"
     inkscape:window-height="1027"
     id="namedview24"
     showgrid="false"
     inkscape:pagecheckerboard="true"
     inkscape:zoom="2.5173333"
     inkscape:cx="106.00827"
     inkscape:cy="146.27093"
     inkscape:window-x="0"
     inkscape:window-y="36"
     inkscape:window-maximized="1"
     inkscape:current-layer="svg22" />
  <defs
     id="defs6">
    <linearGradient
       id="a"
       osb:paint="solid">
      <stop
         style="stop-color:#fff;stop-opacity:1"
         offset="0"
         id="stop2" />
    </linearGradient>
    <linearGradient
       xlink:href="#a"
       id="b"
       x1="681.77002"
       y1="754.94"
       x2="1320.3669"
       y2="754.94"
       gradientUnits="userSpaceOnUse"
       gradientTransform="matrix(0.17210464,0,0,0.17210464,-75.777279,-75.776964)" />
  </defs>
  <ellipse
     style="opacity:1;fill:#ffce00;fill-opacity:1;stroke:none;stroke-width:0;stroke-miterlimit:4;stroke-dasharray:none;stroke-opacity:1"
     cx="96.4086"
     cy="96.738319"
     rx="94.366188"
     ry="94.045891"
     id="ellipse8" />
  <ellipse
     style="fill:#ffffff;fill-opacity:1;stroke-width:0.10387822"
     cx="97.056587"
     cy="114.37681"
     rx="73.290245"
     ry="61.075291"
     id="ellipse10" />
  <path
     style="fill:url(#b);fill-opacity:1;stroke:#000e00;stroke-width:0.12907848px;stroke-linecap:butt;stroke-linejoin:miter;stroke-opacity:0"
     d="M 41.633027,85.024195 50.547532,23.406943 74.449598,64.605011 119.29888,63.511112 140.81196,28.14223 151.38624,84.294815 Z"
     id="path12"
     inkscape:connector-curvature="0" />
  <path
     d="m 72.749031,-4.7665884 c 0,0.1376836 0.08605,0.2065258 0.172105,0.1548941 0.103263,-0.068842 0.137683,-0.1893152 0.08605,-0.2753671 -0.154895,-0.2409469 -0.258158,-0.1893152 -0.258158,0.120473 z M 88.324498,0.89565558 C 67.809628,2.6511226 49.256746,10.464674 33.509172,23.97489 c -2.54715,2.185728 -7.348869,6.987447 -9.534599,9.534597 -12.408745,14.45679 -20.0846126,31.495151 -22.5629198,49.9964 -1.03262801,7.813552 -1.03262801,17.485843 0,25.299383 2.4783072,18.50126 10.1541748,35.53961 22.5629198,49.99641 2.18573,2.54715 6.987449,7.34887 9.534599,9.5346 15.833627,13.57905 34.42093,21.37539 55.073489,23.07924 3.855148,0.32698 11.290075,0.32698 15.145209,0 20.65256,-1.70385 39.23987,-9.50019 55.07349,-23.07924 2.54716,-2.18573 7.34887,-6.98745 9.5346,-9.5346 12.40875,-14.4568 20.08462,-31.49515 22.56292,-49.99641 1.03263,-7.81354 1.03263,-17.485831 0,-25.299383 -2.4783,-18.501249 -10.15417,-35.53961 -22.56292,-49.9964 -2.18573,-2.54715 -6.98744,-7.348869 -9.5346,-9.534597 -15.83362,-13.596268 -34.3865,-21.3581886 -55.07349,-23.07923442 -3.68303,-0.30978914 -11.789173,-0.30978914 -15.403372,0 z M 105.10472,3.8214342 c 19.43061,1.9964142 37.08854,9.5690188 51.71744,22.1326588 2.6504,2.288991 7.24561,6.884185 9.5346,9.534597 10.25743,11.944062 17.39977,26.366433 20.58372,41.580483 1.39404,6.677661 1.87593,11.668695 1.87593,19.086406 0,6.040881 -0.12047,8.054511 -0.86052,13.234851 -2.46109,17.39979 -9.99928,33.92184 -21.59913,47.43205 -2.28899,2.65041 -6.8842,7.24561 -9.5346,9.5346 -11.94406,10.25744 -26.36644,17.39978 -41.58048,20.5837 -3.1151,0.6368 -7.5554,1.308 -11.08355,1.66943 -2.96019,0.29257 -13.045531,0.29257 -16.005728,0 -12.460381,-1.23916 -23.16529,-4.30263 -33.801358,-9.67229 C 45.349971,174.39436 37.725736,168.8698 30.583392,161.72746 23.44105,154.58511 17.91649,146.96089 13.372927,137.95981 8.0032618,127.32374 4.9397981,116.61883 3.7006451,104.15845 c -0.2925776,-2.9602 -0.2925776,-13.045537 0,-16.005736 C 4.9397981,75.692336 8.0032618,64.987427 13.372927,54.351359 17.91649,45.350287 23.44105,37.726051 30.583392,30.583707 40.668724,20.498375 52.71605,12.977402 66.157424,8.3822071 74.297974,5.5941124 81.423106,4.217275 91.42239,3.4944354 93.470435,3.3395412 102.6092,3.563278 105.10472,3.8214342 Z"
     id="path14"
     inkscape:connector-curvature="0"
     style="stroke-width:0.17210466" />
  <path
     d="m 50.547532,23.406943 c 0,0.03443 -1.049838,5.18035 -2.340623,11.410539 -1.273575,6.247398 -3.493726,17.158833 -4.922194,24.283966 l -2.58157,12.94227 -2.61599,2.633201 C 22.546106,90.355653 17.245281,110.87054 23.699206,130.40441 c 6.212978,18.86267 22.700603,34.09393 44.833261,41.39116 12.064536,3.99284 25.454285,5.30083 38.637503,3.76911 23.93976,-2.77089 45.10862,-15.19685 56.29543,-33.0441 9.65507,-15.42058 10.99749,-33.71531 3.66583,-50.065251 -2.87416,-6.419504 -7.02188,-12.357114 -12.39153,-17.77841 l -2.61599,-2.633201 -2.58158,-12.94227 c -2.68483,-13.355321 -7.22839,-35.608453 -7.31445,-35.677294 -0.17209,-0.189315 -16.02294,22.872708 -20.58371,29.928998 -0.99821,1.548942 -1.1359,1.703837 -1.54894,1.617785 -0.24095,-0.05163 -1.8071,-0.395842 -3.45931,-0.791682 -3.3044,-0.77447 -7.05629,-1.394047 -11.18679,-1.858731 -2.06526,-0.223735 -4.11331,-0.292577 -9.035503,-0.292577 -4.922195,0 -6.970247,0.06884 -9.0355,0.292577 -4.130512,0.464684 -7.882393,1.084261 -11.186802,1.858731 -1.652205,0.39584 -3.218357,0.740049 -3.476515,0.791682 -0.413051,0.08605 -0.533524,-0.05163 -1.359626,-1.359628 C 67.121209,46.98528 50.547532,22.90784 50.547532,23.406943 Z m 5.593401,16.866256 c 4.302616,6.247399 10.171384,15.076367 12.047325,18.105409 0.929366,1.51452 1.721047,2.770885 1.738257,2.805306 0.0172,0.03443 0.946576,-0.206526 2.082467,-0.550735 15.747575,-4.715667 33.061308,-4.715667 48.808888,0 1.13589,0.344209 2.06525,0.585157 2.08246,0.550735 0.0172,-0.03443 0.80889,-1.290786 1.73826,-2.805306 2.71925,-4.405878 14.6289,-22.098237 14.88705,-22.115447 0.0516,0 0.30979,1.032628 0.55073,2.271781 0.25817,1.256365 1.99642,9.913228 3.87236,19.2413 l 3.40767,16.952308 3.20116,3.183936 c 3.4765,3.459304 5.42129,5.799927 7.62422,9.121546 4.07889,6.144137 6.53999,12.236645 7.79635,19.275718 0.36143,2.04806 0.44747,3.21836 0.51631,6.53998 0.10326,4.33704 -0.12047,7.10793 -0.80889,10.49839 -4.95661,24.35281 -29.06847,43.52526 -59.11795,47.05342 -20.015776,2.35783 -40.220862,-2.35783 -55.589807,-12.95949 -4.664036,-3.21836 -10.188595,-8.29544 -13.406952,-12.32269 -4.164933,-5.23198 -7.520973,-11.49659 -9.293652,-17.34815 -2.271781,-7.46934 -2.6332,-15.81642 -1.032627,-23.37182 2.134098,-10.119752 7.383289,-19.189667 15.781996,-27.278585 l 2.495518,-2.392255 1.032627,-5.421296 c 1.703836,-8.811758 6.64324,-33.044093 6.746503,-33.044093 0.05164,0.0172 1.325206,1.807099 2.839727,4.010038 z"
     id="path16"
     inkscape:connector-curvature="0"
     style="stroke-width:0.17210466" />
  <path
     style="fill:#ff0000;fill-opacity:1;stroke:none;stroke-width:0.12907846px;stroke-linecap:butt;stroke-linejoin:miter;stroke-opacity:1"
     d="m 95.962678,135.34295 14.220492,-21.14839 -27.347085,0.72921 z"
     id="path18"
     inkscape:connector-curvature="0" />
  <path
     d="m 54.029402,98.208982 c -2.650412,3.321618 -4.836141,6.109708 -4.870561,6.195768 -0.03443,0.0689 1.583361,0.13768 3.614196,0.13768 h 3.66583 l 6.195767,-6.195763 6.195767,-6.19577 -4.991034,0.01721 h -4.991036 z m 76.758678,0.137685 6.19577,6.195763 3.68304,-0.0344 3.66582,-0.0516 -4.92218,-6.161351 -4.9222,-6.144132 h -9.89602 z m -54.178548,4.285403 c -1.118681,0.65399 -2.065256,1.22194 -2.116888,1.27358 -0.05163,0.0516 4.922193,8.84618 11.049119,19.5683 6.109718,10.7049 11.186804,19.4134 11.255646,19.32735 0.120479,-0.13769 22.201501,-38.77518 22.201501,-38.86123 0,-0.086 -4.30262,-2.49552 -4.42309,-2.49552 -0.0861,0 -1.22195,1.92757 -2.54715,4.26819 l -2.42667,4.25099 -12.890639,0.0344 -12.907855,0.0344 -2.409465,-4.23379 c -1.325206,-2.34062 -2.478307,-4.26818 -2.581569,-4.28539 -0.08605,-0.0344 -1.08426,0.48188 -2.20294,1.11867 z m 29.825728,12.73575 c 0,0.3442 -9.689477,17.07278 -9.827163,16.9351 -0.103263,-0.10327 -8.897815,-15.42058 -9.637866,-16.79742 -0.154893,-0.27536 0.36142,-0.29258 9.655072,-0.29258 5.541767,0 9.809957,0.0689 9.809957,0.1549 z M 216.3241,34.667944 c -0.0516,0.08604 -0.0689,0.172104 -0.0172,0.172104 0.0344,0 0.20653,0.05163 0.3442,0.103263 0.20653,0.08605 0.25816,0.03442 0.17212,-0.172104 -0.12049,-0.309789 -0.34422,-0.361421 -0.4991,-0.103263 z m 9.15596,22.648971 c -0.0516,0.327 -0.0173,0.413052 0.1721,0.344209 0.13768,-0.05163 0.27537,-0.103262 0.30979,-0.103262 0.0344,0 0.0172,-0.154894 -0.0345,-0.344209 -0.12047,-0.481894 -0.34421,-0.430261 -0.44748,0.103262 z M 7.1308842,149.39291 c 0,0.13768 0.086058,0.20652 0.1721047,0.1549 0.1032629,-0.0689 0.1376832,-0.18933 0.086046,-0.27538 -0.1548934,-0.24094 -0.2581572,-0.18931 -0.2581572,0.12048 z m 6.8325548,7.24561 c -0.223736,0.20651 -0.120474,0.327 0.671209,0.89494 l 0.791681,0.55073 -0.36142,-0.48189 c -0.860523,-1.17031 -0.894945,-1.18752 -1.10147,-0.96378 z"
     id="path20"
     inkscape:connector-curvature="0"
     style="stroke-width:0.17210466" />
</svg>
