<?xml version="1.0" encoding="UTF-8" standalone="no"?>
<svg
   xmlns:dc="http://purl.org/dc/elements/1.1/"
   xmlns:cc="http://creativecommons.org/ns#"
   xmlns:rdf="http://www.w3.org/1999/02/22-rdf-syntax-ns#"
   xmlns:svg="http://www.w3.org/2000/svg"
   xmlns="http://www.w3.org/2000/svg"
   xmlns:sodipodi="http://sodipodi.sourceforge.net/DTD/sodipodi-0.dtd"
   xmlns:inkscape="http://www.inkscape.org/namespaces/inkscape"
   version="1.0"
   width="256"
   height="256"
   viewBox="0 0 192.00011 192.00011"
   id="svg8"
   sodipodi:docname="mona-circle-black.svg"
   inkscape:export-filename="/tmp/work/MonaCoin.Icon.20220521092535/docs/asset/image/mona-circle-black.svg.png"
   inkscape:export-xdpi="96"
   inkscape:export-ydpi="96"
   inkscape:version="0.92.4 (5da689c313, 2019-01-14)">
  <metadata
     id="metadata10">
    <rdf:RDF>
      <cc:Work
         rdf:about="">
        <dc:format>image/svg+xml</dc:format>
        <dc:type
           rdf:resource="http://purl.org/dc/dcmitype/StillImage" />
        <dc:title></dc:title>
      </cc:Work>
    </rdf:RDF>
  </metadata>
  <defs
     id="defs8" />
  <sodipodi:namedview
     pagecolor="#ffffff"
     bordercolor="#666666"
     borderopacity="1"
     objecttolerance="10"
     gridtolerance="10"
     guidetolerance="10"
     inkscape:pageopacity="0"
     inkscape:pageshadow="2"
     inkscape:window-width="1920"
     inkscape:window-height="1027"
     id="namedview6"
     showgrid="false"
     inkscape:pagecheckerboard="true"
     inkscape:zoom="1.6998565"
     inkscape:cx="105.59079"
     inkscape:cy="162.76174"
     inkscape:window-x="0"
     inkscape:window-y="36"
     inkscape:window-maximized="1"
     inkscape:current-layer="svg8" />
  <style
     type="text/css"
     id="style2">@media (prefers-color-scheme:light){path{fill:#000}ellipse{fill:#ffce00}}@media (prefers-color-scheme:dark){path{fill:#ffce00}ellipse{fill:#000}}</style>
  <ellipse
     cx="98.702286"
     cy="93.808121"
     rx="82.82505"
     ry="67.721863"
     id="ellipse4"
     style="fill:#ffce00;stroke-width:0.22996162" />
  <path
     d="M 88.650206,0.58006501 C 68.643544,2.2587849 51.212453,9.1806297 35.483078,21.690542 31.550735,24.81802 24.352936,32.015819 21.225458,35.948163 9.3824342,50.803683 2.690551,66.878001 0.41393092,85.895827 c -0.55190789,4.668221 -0.55190789,16.028323 0,20.696543 2.27662008,19.01783 8.96850328,35.09215 20.81152708,49.94767 3.127478,3.93234 10.325277,11.13014 14.25762,14.25762 14.855521,11.84302 30.929839,18.53491 49.947665,20.81153 2.483585,0.29895 5.105148,0.39093 10.348273,0.39093 5.243124,0 7.864684,-0.092 10.348274,-0.39093 19.01783,-2.27662 35.09214,-8.96851 49.94766,-20.81153 3.93235,-3.12748 11.13015,-10.32528 14.25762,-14.25762 11.84303,-14.85552 18.53491,-30.92984 20.81153,-49.94767 0.55191,-4.66822 0.55191,-16.028322 0,-20.696543 C 188.86748,66.878001 182.1756,50.803683 170.33257,35.948163 167.2051,32.015819 160.0073,24.81802 156.07495,21.690542 141.28842,9.9165069 125.03013,3.1096429 106.35725,0.92500745 102.72386,0.48808036 92.191615,0.2811149 88.650206,0.58006501 Z M 85.775685,83.642203 c 5.565072,17.293117 10.1873,31.366767 10.256289,31.274777 0.09198,-0.11498 16.718206,-51.62638 19.707706,-61.054807 l 0.55191,-1.770704 h 16.74121 l 0.11498,0.505915 c 0.069,0.29895 3.26545,20.144638 7.12881,44.106639 3.86336,23.961997 7.05982,43.807687 7.12881,44.083647 l 0.11498,0.52891 h -16.7412 l -0.13798,-0.64389 c -0.069,-0.34495 -2.04666,-12.53291 -4.39227,-27.06649 -2.34561,-14.556568 -4.27729,-26.514572 -4.32328,-26.629553 -0.023,-0.09198 -3.97833,12.072985 -8.80753,27.020493 l -8.76154,27.20446 -8.370599,0.069 -8.393599,0.046 -8.715545,-27.13547 c -5.63406,-17.477087 -8.80753,-26.974502 -8.899515,-26.721544 -0.137977,0.29895 -3.863355,23.111144 -3.863355,23.594064 0,0.069 1.655723,0.13798 3.679386,0.13798 h 3.679386 v 8.9685 l -4.415264,0.046 -4.415263,0.069 -0.160973,0.80487 c -0.09199,0.43692 -0.229962,1.28778 -0.321946,1.88568 l -0.137977,1.10382 h 9.451423 v 8.9685 H 62.526565 l -0.643892,4.13931 -0.643893,4.13931 h -8.370603 c -4.599232,0 -8.370603,-0.069 -8.370603,-0.18397 0,-0.092 0.29895,-1.95467 0.643893,-4.13931 L 45.785359,133.038 H 30.929838 v -8.9685 h 16.281283 l 0.252958,-1.44876 c 0.137977,-0.80487 0.252958,-1.67872 0.252958,-1.95468 v -0.50591 H 30.929838 v -8.9685 h 18.350938 l 0.114981,-0.52892 c 0.06899,-0.27595 2.207631,-13.567732 4.783201,-29.550065 l 4.668221,-29.021156 8.3936,0.04599 8.416595,0.06899 z"
     id="path6"
     inkscape:connector-curvature="0"
     style="fill:#000000;stroke-width:0.02299616" />
</svg>
