<?xml version="1.0" encoding="UTF-8" standalone="no"?>
<svg
   xmlns:dc="http://purl.org/dc/elements/1.1/"
   xmlns:cc="http://creativecommons.org/ns#"
   xmlns:rdf="http://www.w3.org/1999/02/22-rdf-syntax-ns#"
   xmlns:svg="http://www.w3.org/2000/svg"
   xmlns="http://www.w3.org/2000/svg"
   xmlns:sodipodi="http://sodipodi.sourceforge.net/DTD/sodipodi-0.dtd"
   xmlns:inkscape="http://www.inkscape.org/namespaces/inkscape"
   version="1.0"
   width="256"
   height="256"
   viewBox="0 0 192.00005 192.00008"
   id="svg10"
   sodipodi:docname="monar-outline-transparent.svg"
   inkscape:version="0.92.4 (5da689c313, 2019-01-14)"
   inkscape:export-filename="/tmp/work/MonaCoin.Icon.20220521092535/docs/asset/image/monar-outline-transparent.svg.png"
   inkscape:export-xdpi="96"
   inkscape:export-ydpi="96">
  <metadata
     id="metadata16">
    <rdf:RDF>
      <cc:Work
         rdf:about="">
        <dc:format>image/svg+xml</dc:format>
        <dc:type
           rdf:resource="http://purl.org/dc/dcmitype/StillImage" />
        <dc:title></dc:title>
      </cc:Work>
    </rdf:RDF>
  </metadata>
  <defs
     id="defs14" />
  <sodipodi:namedview
     pagecolor="#ffffff"
     bordercolor="#666666"
     borderopacity="1"
     objecttolerance="10"
     gridtolerance="10"
     guidetolerance="10"
     inkscape:pageopacity="0"
     inkscape:pageshadow="2"
     inkscape:window-width="1920"
     inkscape:window-height="1027"
     id="namedview12"
     showgrid="false"
     inkscape:pagecheckerboard="true"
     inkscape:zoom="2.3930996"
     inkscape:cx="56.072902"
     inkscape:cy="143.97803"
     inkscape:window-x="0"
     inkscape:window-y="36"
     inkscape:window-maximized="1"
     inkscape:current-layer="svg10" />
  <style
     type="text/css"
     id="style2">@media (prefers-color-scheme:light){g{fill:#000}}@media (prefers-color-scheme:dark){g{fill:#fff}}</style>
  <g
     id="g8"
     style="fill:#000000;stroke:none"
     transform="matrix(0.16186535,0,0,0.16186535,1.4998953,0.44824616)">
    <path
       d="m 228.527,0.205 c 0,0.3 -3.6,18.3 -8.1,40 -19.1,93.5 -32.2,158.1 -49.4,244.1 l -18.4,91.8 -18.5,19.2 c -28.6,29.8 -42.6,46.8 -59.8,72.2 -71.9,106.3 -92.3,227.3 -58.3,345.7 16.9,59 45.2,111.6 87.9,163.3 12.6,15.3 46.4,49 62.6,62.5 118,98.2 277.3,150.1 442.2,143.9 24.1,-0.8 41.2,-2.1 60.8,-4.5 187.8,-22.4 353.3,-121.6 438.2,-262.7 89.8,-149.4 78.3,-330.6 -29.9,-470.4 -13.1,-16.9 -23,-28.2 -43.9,-50 l -18.5,-19.2 -15.4,-76.8 c -30.7,-153.1 -60.2,-297.4 -61.1,-298.2 -0.6,-0.7 -1.2,0 -13.6,17.4 -28,39.3 -88.3,127.2 -127.6,186.1 -14.3,21.5 -26.8,39.4 -27.6,39.7 -0.9,0.4 -11.4,-1.6 -23.4,-4.4 -37.2,-8.6 -76.7,-14.8 -106.7,-16.8 -19.4,-1.4 -92.8,-1.4 -111.5,-0.1 -33.4,2.4 -70.2,8.4 -113.9,18.5 -8.5,2 -16,3.4 -16.7,3.1 -0.6,-0.2 -13.7,-19.3 -29.1,-42.3 -40.2,-60.3 -91.6,-135.1 -121.4,-176.8 -17.5,-24.5 -18.8,-26.3 -18.9,-25.3 z m 28.1,108.5 c 24.5,34.5 90.5,133.2 110.9,165.8 6.1,9.9 11.3,18.1 11.4,18.2 0.1,0.2 8.9,-2.2 19.5,-5.2 85.2,-24.1 167.3,-31.6 252.6,-23 41.3,4.2 79.2,11.6 121.9,23.9 8.8,2.5 16.2,4.2 16.5,3.8 0.4,-0.5 5.8,-9.2 12.1,-19.3 18.9,-30.4 97.7,-148 112.4,-167.9 l 4,-5.5 1.3,4.5 c 0.7,2.5 14.4,69.6 30.3,149 l 29.1,144.5 22.7,23 c 31.7,32 42,44.1 58.8,69 36.7,54.5 59.6,115 65.4,173 1.8,17.8 1.6,67.6 -0.4,83.5 -13.2,107.7 -74.8,207.3 -174,281.2 -73.6,55 -166.9,93.1 -264.6,108.2 -32.4,5 -53.4,6.7 -90.1,7.3 -47.7,0.8 -81,-1.6 -123.3,-8.7 -93.9,-15.9 -184.1,-53.1 -253.1,-104.4 -25.3,-18.9 -57.6,-48 -76.4,-68.9 -38.6,-42.9 -68.8,-94.8 -86,-148.1 -20.4,-63 -22.5,-135.9 -5.6,-200.8 7.4,-28.8 15.8,-50.8 29.6,-77.8 21.4,-42 43.6,-71.6 84.9,-113.5 l 23.6,-24 1.8,-10 c 7.1,-39.8 57.2,-286.5 58.2,-286.5 0.2,0 3.1,3.9 6.5,8.7 z"
       id="path4"
       inkscape:connector-curvature="0" />
    <path
       d="m 261.027,567.705 c -37.8,47.4 -44.5,56.1 -44.5,57.3 0,0.6 10,1 27.8,1 h 27.7 l 48,-48 48,-48 h -77 z m 587,10.3 48,48 h 28.2 c 15.6,0 28.3,-0.2 28.3,-0.5 0,-0.3 -17.1,-21.9 -38,-48 l -38,-47.5 h -76.5 z m -415.5,31.3 c -14.8,8.1 -20,11.5 -20,12.7 0,3.6 170,300 172,300 0.3,0 18.3,-30.9 40,-68.8 94.5,-165 132.1,-231.5 131.3,-232.2 -1.6,-1.6 -31.7,-18 -33,-18 -1.3,0 -6.8,9.1 -26.2,43.1 l -12.3,21.6 -54.7,0.6 c -30,0.4 -75.1,0.7 -100.1,0.7 h -45.5 l -15.2,-26.8 c -16.1,-28.3 -22.8,-39.2 -24,-39.2 -0.5,0 -6,2.8 -12.3,6.3 z m 218.8,100.5 8.3,0.7 -11.9,21 c -23.9,42.5 -60.9,105.5 -63.6,108.2 -1.3,1.4 -0.7,2.5 -46.7,-77.8 -15.3,-26.7 -28.1,-49.3 -28.5,-50.2 -0.4,-1.2 0.2,-1.7 2.8,-2 5.5,-0.7 130.7,-0.5 139.6,0.1 z"
       id="path6"
       inkscape:connector-curvature="0" />
  </g>
</svg>
