<?xml version="1.0" encoding="UTF-8" standalone="no"?>
<svg
   xmlns:osb="http://www.openswatchbook.org/uri/2009/osb"
   xmlns:dc="http://purl.org/dc/elements/1.1/"
   xmlns:cc="http://creativecommons.org/ns#"
   xmlns:rdf="http://www.w3.org/1999/02/22-rdf-syntax-ns#"
   xmlns:svg="http://www.w3.org/2000/svg"
   xmlns="http://www.w3.org/2000/svg"
   xmlns:xlink="http://www.w3.org/1999/xlink"
   xmlns:sodipodi="http://sodipodi.sourceforge.net/DTD/sodipodi-0.dtd"
   xmlns:inkscape="http://www.inkscape.org/namespaces/inkscape"
   viewBox="0 0 191.99998 191.99998"
   height="256"
   width="256"
   version="1.0"
   id="svg24"
   sodipodi:docname="monacoin-mouth-white.svg"
   inkscape:version="0.92.4 (5da689c313, 2019-01-14)"
   inkscape:export-filename="/tmp/work/MonaCoin.Icon.20220521092535/docs/asset/image/monacoin-mouth-white.svg.png"
   inkscape:export-xdpi="96"
   inkscape:export-ydpi="96">
  <metadata
     id="metadata28">
    <rdf:RDF>
      <cc:Work
         rdf:about="">
        <dc:format>image/svg+xml</dc:format>
        <dc:type
           rdf:resource="http://purl.org/dc/dcmitype/StillImage" />
        <dc:title></dc:title>
      </cc:Work>
    </rdf:RDF>
  </metadata>
  <sodipodi:namedview
     pagecolor="#ffffff"
     bordercolor="#666666"
     borderopacity="1"
     objecttolerance="10"
     gridtolerance="10"
     guidetolerance="10"
     inkscape:pageopacity="0"
     inkscape:pageshadow="2"
     inkscape:window-width="1920"
     inkscape:window-height="1027"
     id="namedview26"
     showgrid="false"
     inkscape:pagecheckerboard="true"
     inkscape:zoom="2.2462008"
     inkscape:cx="63.865152"
     inkscape:cy="132.82298"
     inkscape:window-x="0"
     inkscape:window-y="36"
     inkscape:window-maximized="1"
     inkscape:current-layer="svg24" />
  <defs
     id="defs6">
    <linearGradient
       id="a"
       osb:paint="solid">
      <stop
         style="stop-color:#fff;stop-opacity:1"
         offset="0"
         id="stop2" />
    </linearGradient>
    <linearGradient
       xlink:href="#a"
       id="b"
       x1="681.77002"
       y1="754.94"
       x2="1320.3669"
       y2="754.94"
       gradientUnits="userSpaceOnUse"
       gradientTransform="matrix(0.10700926,0,0,0.10700926,-10.512507,-10.290337)" />
  </defs>
  <ellipse
     ry="93.17971"
     rx="94.192772"
     cy="96.492271"
     cx="95.710365"
     style="fill:#ffce00;stroke-width:0.0911331"
     id="ellipse8" />
  <ellipse
     style="fill:#ffffff;fill-opacity:1;stroke-width:0.06458822"
     cx="96.950172"
     cy="107.94131"
     rx="45.569576"
     ry="37.974701"
     id="ellipse10" />
  <path
     style="fill:url(#b);fill-opacity:1;stroke:#000e00;stroke-width:0.08025696px;stroke-linecap:butt;stroke-linejoin:miter;stroke-opacity:0"
     d="m 62.489541,89.690767 5.54276,-38.311672 14.861554,25.615665 27.885875,-0.680152 13.37616,-21.99126 6.57475,34.913914 z"
     id="path12"
     inkscape:connector-curvature="0" />
  <path
     d="M 92.430414,1.2238481 C 87.144157,1.5127737 83.388131,1.9408105 79.10776,2.7219778 51.520769,7.7728156 27.465085,24.840795 13.468272,49.303116 6.8979023,60.774509 2.7245406,73.808237 1.4297283,86.874069 c -0.3638315,3.69182 -0.428037,5.093642 -0.428037,9.737846 0,5.564475 0.1819157,8.496535 0.8560742,13.322655 2.4291105,17.48532 9.8555535,34.23227 21.1878355,47.77964 3.477802,4.16266 8.0792,8.76406 12.241861,12.24186 13.547374,11.33229 30.294326,18.75872 47.779642,21.18784 4.826118,0.67415 7.758172,0.85607 13.322654,0.85607 5.564482,0 8.496532,-0.18192 13.322652,-0.85607 29.12792,-4.05565 54.89576,-21.54097 69.59883,-47.22319 6.57037,-11.4714 10.74373,-24.50513 12.03854,-37.57096 0.36385,-3.69182 0.42804,-5.09364 0.42804,-9.737845 0,-5.564489 -0.18192,-8.496538 -0.85607,-13.322656 C 185.94581,47.526762 160.88425,17.457156 126.52357,6.0285651 118.85101,3.4710426 111.68138,2.0585203 102.97082,1.3629603 101.57971,1.2559506 93.746629,1.148942 92.430414,1.2238481 Z m 7.918686,3.2530824 c 13.37616,0.6206539 25.57521,3.7881278 37.37834,9.6950395 12.75551,6.388454 23.89516,15.708961 32.52013,27.23386 15.1739,20.256857 21.29483,45.671557 17.03586,70.80803 -3.6383,21.53027 -15.0348,41.25207 -31.99576,55.3559 -12.40239,10.31569 -27.4907,17.2713 -43.29596,19.93583 -13.033729,2.2044 -26.110263,1.65864 -38.876469,-1.64795 C 59.03282,182.21934 45.63526,175.0176 34.752415,165.21556 33.06167,163.70672 29.776485,160.43224 28.182046,158.67729 9.0380878,137.64996 0.72346718,109.1962 5.4960809,81.00996 9.1343961,59.479696 20.530883,39.757888 37.491853,25.654066 55.041375,11.047299 77.673835,3.428239 100.3491,4.4769305 Z"
     id="path14"
     inkscape:connector-curvature="0"
     style="stroke-width:0.10700928" />
  <path
     d="M 92.965461,7.0558532 C 76.293417,7.676507 60.30623,12.88786 46.362923,22.25117 36.8819,28.618222 28.396065,37.104057 22.029013,46.58508 14.15313,58.313296 9.2093026,71.464734 7.4757524,85.322434 5.0894455,104.30588 8.7491627,123.34282 17.973362,140.03628 c 6.762986,12.23116 16.746952,23.1247 28.389561,30.93637 11.728215,7.87589 24.879656,12.81971 38.737356,14.55327 18.983451,2.3863 38.020401,-1.27341 54.713841,-10.49761 12.23116,-6.76298 23.1247,-16.74695 30.93638,-28.38956 4.97593,-7.41574 8.82827,-15.47355 11.35369,-23.75606 6.69878,-22.01181 4.72981,-45.821372 -5.47888,-66.217337 C 172.21653,47.84779 166.74835,40.260831 159.73925,33.262425 148.23575,21.758929 134.26034,13.776036 118.59418,9.7738892 112.25923,8.1473485 106.30952,7.3019751 99.40742,7.0451531 96.411159,6.9381412 96.197141,6.9381412 92.965461,7.0558038 Z m 10.647419,1.9582699 c 11.36438,1.0058879 21.64798,3.8523339 31.56774,8.7319569 12.29536,6.046024 23.15681,15.034804 31.40722,26.003254 9.267,12.316767 15.10972,26.720213 17.00378,41.947633 0.50294,4.055652 0.58854,5.596589 0.58854,10.914948 0,5.318355 -0.0856,6.859285 -0.58854,10.914945 -2.92137,23.54204 -15.34513,44.976 -34.33928,59.28313 -12.31677,9.26701 -26.72021,15.10972 -41.94763,17.00378 -4.05565,0.50295 -5.5966,0.58855 -10.914952,0.58855 -5.318361,0 -6.859294,-0.0857 -10.914946,-0.58855 C 70.354402,181.94112 56.004457,176.15191 43.7947,167.00262 37.117321,162.01599 31.167606,156.07697 26.191673,149.4745 16.924672,137.15773 11.081964,122.75428 9.1879008,107.52686 8.6849572,103.4712 8.5993497,101.93027 8.5993497,96.611915 c 0,-5.318359 0.085607,-6.859296 0.5885511,-10.914948 C 12.109254,62.154929 24.53303,40.720972 43.527177,26.413831 56.892634,16.354961 72.76211,10.319637 89.273642,9.0248243 92.473218,8.7787035 92.366209,8.7787035 97.192328,8.810806 c 2.996252,0.021401 5.136442,0.096306 6.420552,0.2033171 z"
     id="path16"
     inkscape:connector-curvature="0"
     style="stroke-width:0.10700928" />
  <path
     d="m 81.836497,33.861676 c 0,0.08561 0.05351,0.128412 0.107011,0.0963 0.06421,-0.04279 0.08561,-0.11771 0.05351,-0.171215 -0.0963,-0.149813 -0.160514,-0.11771 -0.160514,0.07491 z m 9.684339,3.520606 c -12.755505,1.091494 -24.291106,5.949716 -34.082454,14.349943 -1.583737,1.359018 -4.569297,4.344577 -5.928314,5.928314 -7.715368,8.988777 -12.487981,19.582695 -14.028915,31.086193 -0.642056,4.858219 -0.642056,10.872145 0,15.730358 1.540934,11.5035 6.313547,22.09742 14.028915,31.0862 1.359017,1.58373 4.344577,4.5693 5.928314,5.92831 9.844854,8.44303 21.401855,13.29055 34.242968,14.34994 2.397008,0.20332 7.019809,0.20332 9.41681,0 12.84112,-1.05939 24.39812,-5.90691 34.24297,-14.34994 1.58374,-1.35901 4.5693,-4.34458 5.92831,-5.92831 7.71537,-8.98878 12.48799,-19.5827 14.02892,-31.0862 0.64207,-4.858213 0.64207,-10.872139 0,-15.730358 -1.54093,-11.503498 -6.31355,-22.097416 -14.02892,-31.086193 -1.35901,-1.583737 -4.34457,-4.569296 -5.92831,-5.928314 -9.84485,-8.453732 -21.38044,-13.27985 -34.24297,-14.349943 -2.289993,-0.192617 -7.330129,-0.192617 -9.577324,0 z m 10.433404,1.819158 c 12.08135,1.241307 23.06049,5.949715 32.15628,13.761392 1.64795,1.423223 4.50509,4.280372 5.92832,5.928314 6.37775,7.426442 10.81863,16.393818 12.79832,25.853439 0.86676,4.151959 1.16639,7.255232 1.16639,11.86733 0,3.756015 -0.0749,5.008025 -0.53504,8.229015 -1.53024,10.81863 -6.21725,21.09153 -13.42967,29.49176 -1.42323,1.64793 -4.28037,4.50508 -5.92832,5.9283 -7.42644,6.37776 -16.39382,10.81865 -25.85344,12.79831 -1.93686,0.39594 -4.6977,0.81327 -6.89139,1.03799 -1.84056,0.18192 -8.111303,0.18192 -9.951864,0 -7.747471,-0.77046 -14.403448,-2.67523 -21.01662,-6.01392 -5.596586,-2.82504 -10.337096,-6.26004 -14.777982,-10.70092 -4.440884,-4.44089 -7.875882,-9.1814 -10.700927,-14.77798 -3.33869,-6.61318 -5.243455,-13.26915 -6.013921,-21.01662 -0.181915,-1.840561 -0.181915,-8.111311 0,-9.95187 0.770466,-7.74747 2.675231,-14.403446 6.013921,-21.016619 2.825045,-5.596586 6.260043,-10.337094 10.700927,-14.77798 6.270744,-6.270743 13.761394,-10.947048 22.118818,-13.804196 5.061538,-1.733549 9.491722,-2.589624 15.708961,-3.039064 1.273411,-0.0963 6.955607,0.04281 8.507237,0.203319 z"
     id="path18"
     inkscape:connector-curvature="0"
     style="stroke-width:0.10700928" />
  <path
     d="m 68.032301,51.379095 c 0,0.0214 -0.652757,3.220979 -1.455327,7.094715 -0.791868,3.884436 -2.172288,10.668822 -3.060465,15.099007 l -1.605139,8.047097 -1.626541,1.637242 c -9.662937,9.748546 -12.958824,22.504054 -8.945975,34.649604 3.863035,11.72821 14.114522,21.19854 27.875916,25.73574 7.501349,2.4826 15.82667,3.29588 24.02359,2.34349 14.88498,-1.72285 28.04713,-9.44892 35.00272,-20.54578 6.00323,-9.58804 6.8379,-20.96312 2.2793,-31.128998 -1.78705,-3.991444 -4.36597,-7.683264 -7.70467,-11.054056 l -1.62653,-1.637242 -1.60515,-8.047097 c -1.66933,-8.30392 -4.49438,-22.140217 -4.54789,-22.183021 -0.10705,-0.117711 -9.96256,14.221531 -12.79831,18.608911 -0.62065,0.963083 -0.70626,1.059392 -0.96308,1.005887 -0.14982,-0.0321 -1.1236,-0.246121 -2.15089,-0.492243 -2.05458,-0.481542 -4.38738,-0.866775 -6.9556,-1.1557 -1.28411,-0.139113 -2.557523,-0.181916 -5.617988,-0.181916 -3.060466,0 -4.333876,0.04279 -5.617987,0.181916 -2.568223,0.288925 -4.901024,0.674158 -6.955603,1.1557 -1.027289,0.246122 -2.001074,0.46014 -2.161587,0.492243 C 81.558273,71.0581 81.483366,70.97249 80.969722,70.15922 78.337293,66.039364 68.032301,51.068768 68.032301,51.379095 Z m 3.477801,10.486909 c 2.675232,3.884434 6.324248,9.374011 7.490649,11.257373 0.577849,0.941682 1.070092,1.722849 1.080793,1.744251 0.01065,0.0214 0.588552,-0.128411 1.294813,-0.342428 9.791348,-2.932055 20.556483,-2.932055 30.347823,0 0.70627,0.214017 1.28412,0.36383 1.29482,0.342428 0.011,-0.0214 0.50294,-0.802569 1.0808,-1.744251 1.69074,-2.739437 9.09579,-13.739989 9.25629,-13.750689 0.0321,0 0.19263,0.642055 0.34244,1.412523 0.1605,0.781166 1.24129,6.163732 2.4077,11.963634 l 2.11878,10.540414 1.99038,1.979671 c 2.16159,2.150887 3.37079,3.606212 4.7405,5.671492 2.53613,3.820228 4.06636,7.608358 4.84753,11.985048 0.22472,1.2734 0.27822,2.00106 0.32104,4.06634 0.0642,2.69664 -0.0749,4.41949 -0.50295,6.52757 -3.08187,15.14182 -18.07387,27.06264 -36.75769,29.25633 -12.445179,1.46603 -25.008068,-1.46602 -34.563996,-8.0578 -2.899952,-2.00106 -6.334949,-5.15784 -8.336023,-7.66186 -2.589624,-3.25308 -4.676305,-7.14821 -5.7785,-10.78653 -1.412524,-4.64421 -1.637242,-9.83415 -0.642056,-14.53186 1.326914,-6.29215 4.590697,-11.931537 9.81275,-16.960973 l 1.551635,-1.487428 0.642055,-3.370793 c 1.059392,-5.478874 4.130559,-20.545778 4.194763,-20.545778 0.0321,0.01065 0.823972,1.123597 1.765654,2.493316 z"
     id="path20"
     inkscape:connector-curvature="0"
     style="stroke-width:0.10700928" />
  <path
     d="m 70.011972,97.703411 c -1.647943,2.065278 -3.006961,3.798829 -3.028362,3.852339 -0.0214,0.0428 0.984484,0.0857 2.247194,0.0857 h 2.279298 l 3.852335,-3.852345 3.852333,-3.85233 -3.103269,0.01098 h -3.103269 z m 47.726138,0.08564 3.85233,3.852349 2.29,-0.0215 2.2793,-0.032 -3.06048,-3.83094 -3.06045,-3.820236 h -6.15303 z m -33.686522,2.664539 c -0.69556,0.40664 -1.284111,0.75978 -1.316214,0.79187 -0.0321,0.032 3.060466,5.50027 6.869996,12.16695 3.798829,6.65597 6.955603,12.07066 6.998407,12.01715 0.07491,-0.0857 13.804203,-24.1092 13.804203,-24.16271 0,-0.0535 -2.67524,-1.551628 -2.75015,-1.551628 -0.0535,0 -0.75976,1.198508 -1.58374,2.653838 l -1.50883,2.64313 -8.014988,0.0215 -8.025696,0.0215 -1.49813,-2.63242 c -0.823971,-1.45533 -1.540933,-2.653841 -1.60514,-2.664546 -0.05351,-0.02141 -0.674157,0.299626 -1.369718,0.695566 z m 18.544712,7.91869 c 0,0.21401 -6.024626,10.61532 -6.110233,10.52971 -0.06421,-0.0643 -5.532379,-9.58803 -5.99252,-10.44411 -0.0963,-0.17121 0.22472,-0.18191 6.003221,-0.18191 3.445695,0 6.099532,0.0428 6.099532,0.0963 z m 68.32542,-50.176699 c -0.032,0.05351 -0.0428,0.107012 -0.011,0.107012 0.0214,0 0.12842,0.0321 0.21403,0.0642 0.12842,0.05351 0.16051,0.0214 0.10705,-0.107011 -0.0749,-0.192618 -0.21401,-0.22472 -0.31032,-0.06421 z m 5.69289,14.082418 c -0.032,0.203318 -0.011,0.256823 0.10705,0.214019 0.0856,-0.0321 0.17121,-0.06421 0.19262,-0.06421 0.0214,0 0.011,-0.0963 -0.0215,-0.214019 -0.0749,-0.299625 -0.21401,-0.267523 -0.27822,0.0642 z M 40.851945,129.52796 c 0,0.0856 0.05351,0.12841 0.107012,0.0963 0.06421,-0.0428 0.08561,-0.1177 0.05351,-0.17121 -0.0963,-0.14982 -0.160513,-0.11771 -0.160513,0.0749 z m 4.248269,4.5051 c -0.139113,0.12841 -0.07491,0.20332 0.417335,0.55645 l 0.492243,0.34242 -0.22472,-0.29962 c -0.535047,-0.72766 -0.556448,-0.73836 -0.684858,-0.59925 z"
     id="path22"
     inkscape:connector-curvature="0"
     style="stroke-width:0.10700928" />
</svg>
