<?xml version="1.0" encoding="UTF-8" standalone="no"?>
<svg
   xmlns:osb="http://www.openswatchbook.org/uri/2009/osb"
   xmlns:dc="http://purl.org/dc/elements/1.1/"
   xmlns:cc="http://creativecommons.org/ns#"
   xmlns:rdf="http://www.w3.org/1999/02/22-rdf-syntax-ns#"
   xmlns:svg="http://www.w3.org/2000/svg"
   xmlns="http://www.w3.org/2000/svg"
   xmlns:xlink="http://www.w3.org/1999/xlink"
   xmlns:sodipodi="http://sodipodi.sourceforge.net/DTD/sodipodi-0.dtd"
   xmlns:inkscape="http://www.inkscape.org/namespaces/inkscape"
   viewBox="0 0 191.99998 191.99998"
   height="256"
   width="256"
   version="1.0"
   id="svg26"
   sodipodi:docname="monacoin-mouth-red.svg"
   inkscape:version="0.92.4 (5da689c313, 2019-01-14)"
   inkscape:export-filename="/tmp/work/MonaCoin.Icon.20220521092535/docs/asset/image/monacoin-mouth-red.svg.png"
   inkscape:export-xdpi="96"
   inkscape:export-ydpi="96">
  <metadata
     id="metadata30">
    <rdf:RDF>
      <cc:Work
         rdf:about="">
        <dc:format>image/svg+xml</dc:format>
        <dc:type
           rdf:resource="http://purl.org/dc/dcmitype/StillImage" />
        <dc:title></dc:title>
      </cc:Work>
    </rdf:RDF>
  </metadata>
  <sodipodi:namedview
     pagecolor="#ffffff"
     bordercolor="#666666"
     borderopacity="1"
     objecttolerance="10"
     gridtolerance="10"
     guidetolerance="10"
     inkscape:pageopacity="0"
     inkscape:pageshadow="2"
     inkscape:window-width="1920"
     inkscape:window-height="1027"
     id="namedview28"
     showgrid="false"
     inkscape:pagecheckerboard="true"
     inkscape:zoom="2.2462008"
     inkscape:cx="100.35391"
     inkscape:cy="130.77229"
     inkscape:window-x="0"
     inkscape:window-y="36"
     inkscape:window-maximized="1"
     inkscape:current-layer="svg26" />
  <defs
     id="defs6">
    <linearGradient
       id="a"
       osb:paint="solid">
      <stop
         style="stop-color:#fff;stop-opacity:1"
         offset="0"
         id="stop2" />
    </linearGradient>
    <linearGradient
       xlink:href="#a"
       id="b"
       x1="681.77002"
       y1="754.94"
       x2="1320.3669"
       y2="754.94"
       gradientUnits="userSpaceOnUse"
       gradientTransform="matrix(0.10709725,0,0,0.10709725,-10.85587,-10.456647)" />
  </defs>
  <ellipse
     ry="93.256325"
     rx="94.27021"
     cy="96.413757"
     cx="95.454323"
     style="fill:#ffce00;stroke-width:0.09120803"
     id="ellipse8" />
  <ellipse
     style="fill:#ffffff;fill-opacity:1;stroke-width:0.06464132"
     cx="96.695152"
     cy="107.8722"
     rx="45.60704"
     ry="38.00592"
     id="ellipse10" />
  <path
     style="fill:url(#b);fill-opacity:1;stroke:#000e00;stroke-width:0.08032294px;stroke-linecap:butt;stroke-linejoin:miter;stroke-opacity:0"
     d="M 62.206195,89.606653 67.753512,51.263486 82.627284,76.900211 110.53607,76.219502 123.92323,54.21016 130.5034,89.152779 Z"
     id="path12"
     inkscape:connector-curvature="0" />
  <path
     d="M 92.171684,1.0670054 C 86.88108,1.3561677 83.121966,1.7845573 78.838077,2.566367 51.228405,7.6213572 27.152943,24.703368 13.144624,49.1858 6.5688527,60.666625 2.3920599,73.711067 1.0961832,86.787646 c -0.36413066,3.69485 -0.42838901,5.097829 -0.42838901,9.745847 0,5.569057 0.18206533,8.503517 0.85677801,13.333607 2.4311076,17.49969 9.8636568,34.26041 21.2052558,47.81893 3.48066,4.16607 8.085842,8.77126 12.251924,12.25192 13.558513,11.34159 30.319233,18.77414 47.818922,21.20525 4.830086,0.67472 7.764552,0.85678 13.333609,0.85678 5.569057,0 8.503517,-0.18206 13.333607,-0.85678 29.15187,-4.05899 54.94088,-21.55868 69.65605,-47.26202 6.57577,-11.48082 10.75256,-24.52527 12.04844,-37.60184 0.36413,-3.69485 0.42838,-5.09783 0.42838,-9.745847 0,-5.569053 -0.18206,-8.503528 -0.85677,-13.333606 C 185.76396,47.407985 160.68179,17.313658 126.29286,5.8756719 118.61399,3.3160472 111.43848,1.902364 102.72076,1.2062314 101.32849,1.0991349 93.488981,0.99203722 92.171684,1.0670054 Z m 7.925196,3.255756 c 13.38715,0.6211644 25.59624,3.7912433 37.40906,9.7030116 12.766,6.393705 23.91482,15.721876 32.54686,27.25625 15.18639,20.273508 21.31236,45.70911 17.04989,70.866247 -3.64132,21.54796 -15.04718,41.28599 -32.02209,55.40141 -12.41257,10.32417 -27.51328,17.2855 -43.33154,19.95221 C 98.704616,189.7081 85.617333,189.1619 72.84063,185.8526 58.746633,182.2113 45.338057,175.00364 34.446266,165.19353 32.75413,163.68346 29.466244,160.40629 27.870495,158.6499 8.7107977,137.60529 0.38934134,109.12812 5.1658787,80.918711 8.8071851,59.370747 20.213042,39.632725 37.187956,25.517307 54.751906,10.898533 77.402973,3.2732086 100.09688,4.3227614 Z"
     id="path14"
     inkscape:connector-curvature="0"
     style="stroke-width:0.10709725" />
  <path
     d="M 92.707171,6.9038054 C 76.021419,7.5249698 60.02109,12.740605 46.066319,22.111615 36.577501,28.483901 28.084691,36.976713 21.712403,46.465529 13.830047,58.203388 8.8821533,71.365638 7.1471778,85.234726 4.7589092,104.23378 8.4216351,123.28638 17.653418,139.99355 c 6.768546,12.24122 16.76072,23.14372 28.412901,30.96182 11.737858,7.88236 24.90011,12.83025 38.769203,14.56523 18.999048,2.38826 38.051648,-1.27447 54.758818,-10.50625 12.24121,-6.76855 23.14371,-16.76072 30.96181,-28.4129 4.98003,-7.42183 8.83553,-15.48625 11.36302,-23.77559 6.70429,-22.0299 4.73371,-45.85903 -5.48338,-66.27177 C 172.0234,47.729277 166.55073,40.136081 159.53585,33.131922 148.02289,21.618967 134.03599,13.629513 118.35696,9.6240753 112.0168,7.9961967 106.06219,7.1501291 99.154425,6.8930951 96.155702,6.7859923 95.941508,6.7859923 92.707171,6.9038522 Z m 10.656169,1.9598795 c 11.37373,1.0067142 21.66578,3.8555011 31.59369,8.7391361 12.30548,6.050994 23.17585,15.047164 31.43305,26.024631 9.27462,12.326894 15.12213,26.742182 17.01775,41.982115 0.50335,4.058996 0.58903,5.601197 0.58903,10.923926 0,5.322727 -0.0857,6.864927 -0.58903,10.923917 -2.92376,23.56139 -15.35775,45.01298 -34.36752,59.33188 -12.32689,9.27462 -26.74217,15.12214 -41.98211,17.01775 -4.05899,0.50336 -5.60119,0.58904 -10.923917,0.58904 -5.322734,0 -6.864934,-0.0857 -10.92392,-0.58904 C 70.077522,181.93284 55.71578,176.13887 43.495984,166.98206 36.813116,161.99133 30.858508,156.04743 25.878486,149.43953 16.603864,137.11264 10.756355,122.69735 8.8607339,107.45741 8.3573768,103.39842 8.271699,101.85622 8.271699,96.533493 c 0,-5.322729 0.085677,-6.86493 0.5890349,-10.923926 C 11.784489,62.048179 24.218479,40.5966 43.228241,26.277697 56.604687,16.210557 72.48721,10.170272 89.012315,8.8743952 c 3.202209,-0.2463238 3.095111,-0.2463238 7.925197,-0.2141955 2.998723,0.021426 5.140668,0.096384 6.425828,0.2034852 z"
     id="path16"
     inkscape:connector-curvature="0"
     style="stroke-width:0.10709725" />
  <path
     d="m 81.569057,33.731667 c 0,0.08568 0.05354,0.128516 0.10709,0.09638 0.06426,-0.04284 0.08568,-0.11781 0.05354,-0.171356 -0.09638,-0.149936 -0.160645,-0.117809 -0.160645,0.07497 z m 9.692301,3.523499 c -12.765992,1.092391 -24.311077,5.954607 -34.110474,14.361742 -1.58504,1.360134 -4.573053,4.348147 -5.933188,5.933187 -7.721712,8.996166 -12.498249,19.598795 -14.040449,31.111742 -0.642584,4.862223 -0.642584,10.881088 0,15.743303 1.5422,11.51296 6.318737,22.11559 14.040449,31.11175 1.360135,1.58504 4.348148,4.57305 5.933188,5.93319 9.852946,8.44997 21.41945,13.30147 34.27112,14.36174 2.398978,0.20349 7.02558,0.20349 9.424556,0 12.85167,-1.06027 24.41817,-5.91177 34.27111,-14.36174 1.58504,-1.36014 4.57306,-4.34815 5.93319,-5.93319 7.72172,-8.99616 12.49825,-19.59879 14.04045,-31.11175 0.64259,-4.862215 0.64259,-10.88108 0,-15.743303 -1.5422,-11.512947 -6.31873,-22.115576 -14.04045,-31.111742 -1.36013,-1.58504 -4.34815,-4.573053 -5.93319,-5.933187 -9.85294,-8.460684 -21.39802,-13.29077 -34.27111,-14.361742 -2.29188,-0.192775 -7.33616,-0.192775 -9.585202,0 z m 10.441982,1.820654 c 12.09127,1.242327 23.07945,5.954606 32.18272,13.772705 1.64929,1.424394 4.5088,4.283891 5.93319,5.933189 6.383,7.432546 10.82753,16.407296 12.80882,25.874697 0.86749,4.155368 1.16736,7.261184 1.16736,11.877082 0,3.759117 -0.0749,5.012147 -0.53548,8.235777 -1.53149,10.82753 -6.22234,21.10886 -13.4407,29.51601 -1.42439,1.64929 -4.2839,4.50878 -5.93319,5.93319 -7.43255,6.38298 -16.4073,10.82753 -25.8747,12.80882 -1.93846,0.39627 -4.70157,0.81394 -6.89706,1.03884 -1.842068,0.18206 -8.117967,0.18206 -9.96004,0 -7.75384,-0.77109 -14.41529,-2.67743 -21.0339,-6.01886 -5.601186,-2.82737 -10.345594,-6.26519 -14.79013,-10.70972 -4.444536,-4.44454 -7.882358,-9.18895 -10.709724,-14.79013 -3.341435,-6.61862 -5.247766,-13.28006 -6.018866,-21.03391 -0.182066,-1.842069 -0.182066,-8.117965 0,-9.960037 0.7711,-7.753846 2.677431,-14.415289 6.018866,-21.033904 2.827366,-5.601185 6.265188,-10.345591 10.709724,-14.790127 6.275899,-6.275899 13.772707,-10.95605 22.137002,-13.815546 5.065699,-1.734975 9.499526,-2.591753 15.721876,-3.041562 1.274457,-0.09638 6.961322,0.04284 8.514232,0.203486 z"
     id="path18"
     inkscape:connector-curvature="0"
     style="stroke-width:0.10709725" />
  <path
     d="m 67.753512,51.263486 c 0,0.02143 -0.653294,3.223628 -1.456523,7.100548 -0.79252,3.88763 -2.174074,10.677594 -3.062982,15.11142 l -1.606459,8.053716 -1.627877,1.638585 c -9.670882,9.756565 -12.969478,22.522555 -8.95333,34.678085 3.86621,11.73786 14.126127,21.21597 27.898833,25.7569 7.507518,2.48465 15.839683,3.29859 24.043326,2.34543 14.89723,-1.72428 28.07019,-9.4567 35.03152,-20.56267 6.00814,-9.59592 6.8435,-20.98036 2.28116,-31.154597 -1.78853,-3.994732 -4.36956,-7.689582 -7.71099,-11.063148 l -1.62788,-1.638585 -1.60647,-8.053716 c -1.67072,-8.310746 -4.49808,-22.158419 -4.55163,-22.201257 -0.1071,-0.11781 -9.97075,14.233222 -12.80883,18.624209 -0.62116,0.963874 -0.70684,1.060262 -0.96387,1.006714 -0.14994,-0.03213 -1.12452,-0.246324 -2.15266,-0.492647 -2.05627,-0.481939 -4.39099,-0.867489 -6.96132,-1.156651 -1.28516,-0.139226 -2.55962,-0.182066 -5.622602,-0.182066 -3.062981,0 -4.337438,0.04284 -5.622605,0.182066 -2.570335,0.289162 -4.905055,0.674712 -6.961322,1.156651 -1.028133,0.246323 -2.002718,0.460518 -2.163365,0.492647 -0.257032,0.05354 -0.332,-0.03213 -0.846067,-0.846069 C 78.066976,65.935807 67.753512,50.952905 67.753512,51.263486 Z m 3.48066,10.49553 c 2.677432,3.887629 6.329448,9.381718 7.496807,11.266629 0.578326,0.942456 1.070973,1.724266 1.081682,1.745685 0.01076,0.02143 0.589035,-0.128517 1.295877,-0.342711 9.799399,-2.934464 20.573382,-2.934464 30.372772,0 0.70685,0.214194 1.28517,0.364131 1.29588,0.342711 0.0108,-0.02143 0.50336,-0.803229 1.08168,-1.745685 1.69214,-2.741689 9.10327,-13.751285 9.26392,-13.761994 0.0321,0 0.19277,0.642584 0.34271,1.413683 0.16064,0.78181 1.24232,6.1688 2.40969,11.973471 l 2.12052,10.549082 1.992,1.981294 c 2.16337,2.15266 3.37357,3.609185 4.74442,5.676156 2.53821,3.823378 4.06969,7.614611 4.8515,11.994893 0.2249,1.27446 0.27846,2.00272 0.3213,4.0697 0.0643,2.69884 -0.0749,4.42311 -0.50336,6.53293 -3.0844,15.15426 -18.08873,27.08489 -36.78791,29.28039 -12.455405,1.46723 -25.028621,-1.46723 -34.592405,-8.06442 -2.902336,-2.00272 -6.340158,-5.1621 -8.342876,-7.66817 -2.591754,-3.25576 -4.68015,-7.1541 -5.783251,-10.7954 -1.413685,-4.64802 -1.638589,-9.84224 -0.642584,-14.54381 1.328006,-6.297318 4.594471,-11.941342 9.820817,-16.974919 l 1.55291,-1.488644 0.642584,-3.373567 c 1.060263,-5.483378 4.133953,-20.562669 4.198212,-20.562669 0.03213,0.01076 0.824649,1.124521 1.767105,2.495365 z"
     id="path20"
     inkscape:connector-curvature="0"
     style="stroke-width:0.10709725" />
  <path
     style="fill:#ff0000;fill-opacity:1;stroke:none;stroke-width:0.08032294px;stroke-linecap:butt;stroke-linejoin:miter;stroke-opacity:1"
     d="m 96.014441,120.919 8.849119,-13.16022 -17.017534,0.45377 z"
     id="path22"
     inkscape:connector-curvature="0" />
  <path
     d="m 69.73481,97.625883 c -1.649297,2.066983 -3.009432,3.801957 -3.030852,3.855497 -0.02143,0.0429 0.985295,0.0857 2.249043,0.0857 h 2.281171 l 3.855501,-3.8555 3.855501,-3.855497 -3.105821,0.01012 h -3.105819 z m 47.76537,0.08568 3.8555,3.855497 2.29188,-0.0214 2.28117,-0.0322 -3.06298,-3.834077 -3.06298,-3.823365 h -6.15809 z m -33.714211,2.666717 c -0.696131,0.40698 -1.285166,0.76039 -1.317295,0.79252 -0.03213,0.0322 3.062981,5.50481 6.875643,12.17695 3.801953,6.66146 6.961321,12.08059 7.00416,12.02703 0.07497,-0.0857 13.815543,-24.12901 13.815543,-24.18256 0,-0.0535 -2.67743,-1.552908 -2.7524,-1.552908 -0.0536,0 -0.76039,1.199488 -1.58504,2.656018 l -1.51007,2.64529 -8.021582,0.0214 -8.032293,0.0214 -1.499362,-2.63459 c -0.824649,-1.45653 -1.5422,-2.656004 -1.606459,-2.666723 -0.05354,-0.02139 -0.674712,0.29987 -1.370845,0.696133 z m 18.559951,7.9252 c 0,0.2142 -6.029573,10.62405 -6.11525,10.53837 -0.06426,-0.0643 -5.536927,-9.59592 -5.997447,-10.45269 -0.09638,-0.17135 0.224905,-0.18207 6.008157,-0.18207 3.448531,0 6.10454,0.0429 6.10454,0.0964 z m 68.3816,-50.217896 c -0.0322,0.05354 -0.0429,0.107103 -0.0101,0.107103 0.0214,0 0.12852,0.03213 0.2142,0.06426 0.12853,0.05354 0.16064,0.02143 0.10706,-0.107103 -0.0749,-0.192775 -0.21419,-0.224904 -0.31057,-0.06426 z m 5.69757,14.093996 c -0.0321,0.203484 -0.0101,0.257033 0.10706,0.214194 0.0857,-0.03213 0.17137,-0.06426 0.19278,-0.06426 0.0214,0 0.0101,-0.09638 -0.0214,-0.214195 -0.0749,-0.299871 -0.2142,-0.267743 -0.27845,0.06426 z M 40.550809,129.4766 c 0,0.0857 0.05354,0.12853 0.107103,0.0964 0.06425,-0.0429 0.08568,-0.11782 0.05354,-0.17135 -0.09638,-0.14994 -0.160646,-0.11782 -0.160646,0.0749 z m 4.251761,4.5088 c -0.139226,0.12851 -0.07497,0.20348 0.41768,0.55691 l 0.492647,0.34271 -0.224904,-0.29987 c -0.535486,-0.72827 -0.556906,-0.73898 -0.685423,-0.59975 z"
     id="path24"
     inkscape:connector-curvature="0"
     style="stroke-width:0.10709725" />
</svg>
