<?xml version="1.0" encoding="UTF-8" standalone="no"?>
<svg
   xmlns:dc="http://purl.org/dc/elements/1.1/"
   xmlns:cc="http://creativecommons.org/ns#"
   xmlns:rdf="http://www.w3.org/1999/02/22-rdf-syntax-ns#"
   xmlns:svg="http://www.w3.org/2000/svg"
   xmlns="http://www.w3.org/2000/svg"
   xmlns:sodipodi="http://sodipodi.sourceforge.net/DTD/sodipodi-0.dtd"
   xmlns:inkscape="http://www.inkscape.org/namespaces/inkscape"
   version="1.0"
   width="256"
   height="256"
   viewBox="0 0 192.00005 192.00011"
   id="svg10"
   sodipodi:docname="mona-line-black.svg"
   inkscape:version="0.92.4 (5da689c313, 2019-01-14)"
   inkscape:export-filename="/tmp/work/MonaCoin.Icon.20220521092535/docs/asset/image/mona-line-black.svg.png"
   inkscape:export-xdpi="96"
   inkscape:export-ydpi="96">
  <metadata
     id="metadata11">
    <rdf:RDF>
      <cc:Work
         rdf:about="">
        <dc:format>image/svg+xml</dc:format>
        <dc:type
           rdf:resource="http://purl.org/dc/dcmitype/StillImage" />
        <dc:title></dc:title>
      </cc:Work>
    </rdf:RDF>
  </metadata>
  <defs
     id="defs9" />
  <sodipodi:namedview
     pagecolor="#ffffff"
     bordercolor="#666666"
     borderopacity="1"
     objecttolerance="10"
     gridtolerance="10"
     guidetolerance="10"
     inkscape:pageopacity="0"
     inkscape:pageshadow="2"
     inkscape:window-width="1920"
     inkscape:window-height="1027"
     id="namedview7"
     showgrid="false"
     inkscape:pagecheckerboard="true"
     inkscape:zoom="2.8284271"
     inkscape:cx="83.467598"
     inkscape:cy="131.08634"
     inkscape:window-x="0"
     inkscape:window-y="36"
     inkscape:window-maximized="1"
     inkscape:current-layer="svg10" />
  <style
     type="text/css"
     id="style2">@media (prefers-color-scheme:light){ellipse{fill:#ffce00}path{fill:#000}}@media (prefers-color-scheme:dark){ellipse{fill:#000}path{fill:#ffce00}}</style>
  <ellipse
     cx="95.061935"
     cy="96.175316"
     rx="94.345787"
     ry="93.663109"
     id="ellipse4"
     style="fill:#ffce00;stroke-width:0.22582918" />
  <path
     d="M 88.993449,0.53553071 C 65.620129,2.3873299 44.595432,12.030236 28.222817,28.380269 14.266574,42.336511 4.9849951,60.13185 1.6201403,79.372496 0.49099433,85.786045 0.26516513,88.654075 0.26516513,96.151605 c 0,7.497535 0.2258292,10.365555 1.35497517,16.779105 6.4587144,36.87791 34.4841157,67.0261 70.7748637,76.12702 18.066335,4.53917 36.923076,3.81651 54.334506,-2.10022 28.31898,-9.62031 50.45023,-31.75158 60.07056,-60.07056 8.76217,-25.7671 5.98448,-54.695821 -7.47495,-78.182056 C 162.00403,18.511534 130.00404,0.06128944 95.452163,0.30970153 93.148706,0.33228445 90.235509,0.42261613 88.993449,0.53553071 Z M 106.04356,4.2391292 c 18.40507,2.1227943 35.0261,9.1686648 49.11785,20.8666158 3.36485,2.800282 8.69441,8.107268 11.56245,11.539871 10.79463,12.872263 17.90825,28.341562 20.4827,44.488348 0.94848,5.916725 1.12914,8.400846 1.12914,15.017641 0,3.590684 -0.1129,7.452355 -0.27099,8.920245 -1.33238,12.05929 -4.29075,22.26677 -9.43966,32.51941 -8.96541,17.86309 -23.32815,32.22582 -41.19124,41.19124 -10.25264,5.14891 -20.46012,8.10727 -32.5194,9.43966 -3.38744,0.36132 -14.453071,0.36132 -17.840509,0 C 75.014623,186.88977 64.807144,183.93141 54.554499,178.7825 45.543915,174.24334 38.249632,169.0041 30.977933,161.80015 18.737992,149.6957 10.337146,134.94905 6.2270555,118.28287 4.3526733,110.71758 3.6526029,104.6202 3.6526029,96.151605 c 0,-6.616795 0.1806633,-9.100916 1.1291458,-15.017641 C 7.3562014,64.987178 14.46982,49.517879 25.264455,36.645616 28.132485,33.213013 33.462054,27.906027 36.826909,25.105745 47.689292,16.095161 60.267978,9.7267782 73.862894,6.3845064 79.215046,5.0746972 83.257388,4.4423755 90.912997,3.8100537 93.126123,3.6293904 103.17552,3.9003855 106.04356,4.2391292 Z"
     id="path6"
     inkscape:connector-curvature="0"
     style="stroke-width:0.22582918" />
  <path
     d="m 59.658238,53.515055 c -0.06775,0.361327 -2.16796,13.278757 -4.652081,28.748055 -2.48412,15.469298 -4.561749,28.25123 -4.629498,28.38673 -0.06774,0.22582 -2.122794,0.29358 -9.146081,0.29358 H 32.19741 l 0.04516,4.33591 0.06774,4.35851 8.310514,0.0678 c 5.577981,0.0226 8.287931,0.13549 8.287931,0.29357 0,0.11292 -0.112914,0.9259 -0.248412,1.78406 l -0.270996,1.5808 -8.039518,0.0452 -8.039519,0.0678 -0.06774,4.33592 -0.04516,4.35851 h 7.339449 c 5.826392,0 7.339448,0.0677 7.339448,0.29358 0,0.15808 -0.248412,1.82922 -0.564573,3.72618 -0.316161,1.89696 -0.564573,3.59068 -0.564573,3.77135 0,0.29357 1.106563,0.33874 8.12985,0.33874 h 8.129851 l 0.09033,-0.49683 c 0.06774,-0.29358 0.31616,-1.85179 0.587155,-3.45518 0.248413,-1.62597 0.519408,-3.20678 0.587157,-3.54553 l 0.135497,-0.63231 h 10.568806 v -8.80734 h -4.652082 c -4.313337,0 -4.629497,-0.0226 -4.516583,-0.4065 0.04516,-0.20324 0.15808,-0.83556 0.248412,-1.40013 0.293577,-1.96472 -0.135497,-1.80664 4.652082,-1.80664 h 4.268171 v -8.80733 h -7.271703 l 0.135497,-0.63233 c 0.06775,-0.33874 0.948483,-5.69089 1.942132,-11.901193 0.993648,-6.210303 1.851798,-11.381792 1.874382,-11.472123 0.02258,-0.112915 3.929427,11.833449 8.67184,26.534926 l 8.604092,26.71559 8.220182,0.0678 8.220181,0.0452 8.53635,-26.46719 c 4.69725,-14.565972 8.60409,-26.557502 8.67183,-26.647834 0.0903,-0.09034 2.07764,11.833449 4.44884,26.489764 l 4.29075,26.62526 h 16.41778 l -0.11291,-0.51941 c -0.0678,-0.271 -3.25194,-19.94072 -7.06845,-43.697944 l -6.95554,-43.178539 -8.24276,0.04516 -8.24278,0.06775 -9.93647,30.870848 C 100.71399,100.87143 96.174817,114.64702 96.084485,114.48893 95.97157,114.28569 79.011799,61.735238 76.77609,54.666784 L 76.211517,52.905317 H 59.793736 Z"
     id="path8"
     inkscape:connector-curvature="0"
     style="stroke-width:0.22582918" />
</svg>
