<?xml version="1.0" encoding="UTF-8" standalone="no"?>
<svg
   xmlns:osb="http://www.openswatchbook.org/uri/2009/osb"
   xmlns:dc="http://purl.org/dc/elements/1.1/"
   xmlns:cc="http://creativecommons.org/ns#"
   xmlns:rdf="http://www.w3.org/1999/02/22-rdf-syntax-ns#"
   xmlns:svg="http://www.w3.org/2000/svg"
   xmlns="http://www.w3.org/2000/svg"
   xmlns:xlink="http://www.w3.org/1999/xlink"
   xmlns:sodipodi="http://sodipodi.sourceforge.net/DTD/sodipodi-0.dtd"
   xmlns:inkscape="http://www.inkscape.org/namespaces/inkscape"
   viewBox="0 0 192 192"
   height="256"
   width="256"
   version="1.0"
   id="svg20"
   sodipodi:docname="monacoin-face-mouth-white.svg"
   inkscape:version="0.92.4 (5da689c313, 2019-01-14)"
   inkscape:export-filename="/tmp/work/MonaCoin.Icon.20220521092535/docs/asset/image/monacoin-face-mouth-white.svg.png"
   inkscape:export-xdpi="96"
   inkscape:export-ydpi="96">
  <metadata
     id="metadata24">
    <rdf:RDF>
      <cc:Work
         rdf:about="">
        <dc:format>image/svg+xml</dc:format>
        <dc:type
           rdf:resource="http://purl.org/dc/dcmitype/StillImage" />
        <dc:title></dc:title>
      </cc:Work>
    </rdf:RDF>
  </metadata>
  <sodipodi:namedview
     pagecolor="#ffffff"
     bordercolor="#666666"
     borderopacity="1"
     objecttolerance="10"
     gridtolerance="10"
     guidetolerance="10"
     inkscape:pageopacity="0"
     inkscape:pageshadow="2"
     inkscape:window-width="1920"
     inkscape:window-height="1027"
     id="namedview22"
     showgrid="false"
     inkscape:pagecheckerboard="true"
     inkscape:zoom="2.3652344"
     inkscape:cx="162.05047"
     inkscape:cy="104.54609"
     inkscape:window-x="0"
     inkscape:window-y="36"
     inkscape:window-maximized="1"
     inkscape:current-layer="svg20" />
  <defs
     id="defs6">
    <linearGradient
       id="a"
       osb:paint="solid">
      <stop
         style="stop-color:#fff;stop-opacity:1"
         offset="0"
         id="stop2" />
    </linearGradient>
    <linearGradient
       xlink:href="#a"
       id="b"
       x1="681.77002"
       y1="754.94"
       x2="1320.3669"
       y2="754.94"
       gradientUnits="userSpaceOnUse"
       gradientTransform="matrix(0.17213677,0,0,0.17213677,-75.880005,-76.097051)" />
  </defs>
  <ellipse
     style="opacity:1;fill:#ffce00;fill-opacity:1;stroke:none;stroke-width:0;stroke-miterlimit:4;stroke-dasharray:none;stroke-opacity:1"
     cx="96.338013"
     cy="96.450447"
     rx="94.383797"
     ry="94.063454"
     id="ellipse8" />
  <ellipse
     style="fill:#ffffff;fill-opacity:1;stroke-width:0.10389761"
     cx="96.986115"
     cy="114.09222"
     rx="73.303925"
     ry="61.086693"
     id="ellipse10" />
  <path
     style="fill:url(#b);fill-opacity:1;stroke:#000e00;stroke-width:0.12910257px;stroke-linecap:butt;stroke-linejoin:miter;stroke-opacity:0"
     d="m 41.552216,84.734123 8.916171,-61.628755 23.906527,41.205756 44.857646,-1.0941 21.51709,-35.375485 10.57625,56.163066 z"
     id="path12"
     inkscape:connector-curvature="0" />
  <path
     d="m 72.67403,-5.0734228 c 0,0.1377094 0.08606,0.2065642 0.172137,0.1549231 0.103288,-0.068855 0.137709,-0.1893505 0.08606,-0.2754187 C 72.777305,-5.43491 72.674023,-5.383269 72.674023,-5.0734228 Z M 88.252409,0.58987708 C 67.733704,2.3456728 49.177359,10.160683 33.426845,23.67342 30.87922,25.859556 26.076605,30.662172 23.890467,33.209796 11.479405,47.669286 3.8021058,64.710828 1.3233356,83.21553 c -1.03282073,7.81501 -1.03282073,17.4891 0,25.30411 2.4787702,18.50471 10.1560694,35.54625 22.5671314,50.00573 2.186138,2.54763 6.988753,7.35025 9.536378,9.53638 15.836583,13.58159 34.427355,21.37939 55.08377,23.08354 3.855862,0.32707 11.292162,0.32707 15.148035,0 20.65641,-1.70415 39.2472,-9.50195 55.08377,-23.08354 2.54762,-2.18613 7.35024,-6.98875 9.53636,-9.53638 12.41108,-14.45948 20.08838,-31.50102 22.56715,-50.00573 1.03282,-7.81501 1.03282,-17.4891 0,-25.30411 -2.47877,-18.504702 -10.15607,-35.546244 -22.56715,-50.005734 -2.18612,-2.547624 -6.98874,-7.35024 -9.53636,-9.536376 C 142.90585,10.074613 124.34949,2.3112453 103.65865,0.58987708 c -3.683733,-0.30984607 -11.791369,-0.30984607 -15.406241,0 z M 105.03574,3.5162024 c 19.43424,1.9967868 37.09548,9.5708056 51.72711,22.1367886 2.6509,2.28942 7.24696,6.885472 9.53637,9.536378 10.25935,11.946293 17.40304,26.371355 20.58756,41.588246 1.39432,6.678908 1.87629,11.670873 1.87629,19.08997 0,6.042015 -0.12049,8.055995 -0.86068,13.237315 -2.46156,17.40303 -10.00115,33.92816 -21.60317,47.44089 -2.28941,2.65092 -6.88547,7.24696 -9.53637,9.53638 -11.9463,10.25936 -26.37136,17.40303 -41.58825,20.58758 -3.11567,0.6369 -7.55681,1.30823 -11.08561,1.66971 -2.96074,0.29264 -13.047966,0.29264 -16.008718,0 -12.462703,-1.23938 -23.16961,-4.30341 -33.807664,-9.67408 -9.002753,-4.54441 -16.628412,-10.07 -23.772089,-17.21368 -7.143677,-7.14367 -12.669267,-14.76934 -17.213677,-23.77209 -5.3706681,-10.63805 -8.4347022,-21.34496 -9.6740869,-33.80766 -0.2926328,-2.96077 -0.2926328,-13.047973 0,-16.008726 C 4.8521398,75.40052 7.9161739,64.693613 13.286842,54.05556 17.831252,45.052806 23.356842,37.427148 30.500519,30.283471 40.587734,20.196255 52.63731,12.673879 66.081191,8.0778275 74.223262,5.2892112 81.349724,3.9121168 91.350871,3.189143 93.399299,3.03422 102.53976,3.2579979 105.03574,3.5162024 Z"
     id="path14"
     inkscape:connector-curvature="0"
     style="stroke-width:0.17213677" />
  <path
     d="m 50.468387,23.105368 c 0,0.03443 -1.050036,5.181318 -2.341062,11.412668 -1.273812,6.248565 -3.494375,17.162037 -4.923111,24.2885 l -2.582052,12.944685 -2.616479,2.633694 C 22.461731,90.066574 17.159918,110.58528 23.615048,130.12281 c 6.214138,18.86618 22.704842,34.1003 44.841632,41.39889 12.066787,3.99357 25.459028,5.30183 38.6447,3.7698 23.94424,-2.7714 45.11705,-15.19968 56.30594,-33.05026 9.65688,-15.42346 10.99955,-33.7216 3.66651,-50.074596 -2.87467,-6.420702 -7.02318,-12.359421 -12.39384,-17.781729 l -2.61647,-2.633694 -2.58206,-12.944685 c -2.68533,-13.357815 -7.22976,-35.6151 -7.31582,-35.683955 -0.17213,-0.18935 -16.02593,22.876978 -20.58754,29.934586 -0.99842,1.549231 -1.13612,1.704154 -1.54924,1.618086 -0.24099,-0.05164 -1.80743,-0.395914 -3.45996,-0.79183 -3.30501,-0.774615 -7.05761,-1.394307 -11.18889,-1.859077 -2.06564,-0.223777 -4.11406,-0.292633 -9.037174,-0.292633 -4.923111,0 -6.971537,0.06886 -9.03718,0.292633 -4.131281,0.46477 -7.883864,1.084462 -11.18889,1.859077 -1.652513,0.395916 -3.218958,0.740189 -3.477164,0.79183 -0.413127,0.08606 -0.533623,-0.05164 -1.35988,-1.35988 C 67.045157,46.688106 50.468387,22.606171 50.468387,23.105368 Z m 5.594444,16.869404 c 4.30342,6.248565 10.173283,15.079182 12.049575,18.108788 0.929538,1.514805 1.721369,2.771403 1.738581,2.80583 0.01721,0.03444 0.946753,-0.206563 2.082855,-0.550837 15.750515,-4.716547 33.067478,-4.716547 48.817988,0 1.13611,0.344274 2.06564,0.585265 2.08286,0.550837 0.0172,-0.03443 0.80905,-1.291025 1.73858,-2.80583 2.71975,-4.406701 14.63163,-22.102361 14.88983,-22.119575 0.0516,0 0.30984,1.032821 0.55084,2.272205 0.2582,1.256599 1.99678,9.915078 3.87307,19.244892 l 3.40832,16.955472 3.20173,3.184532 c 3.47717,3.459949 5.42232,5.801009 7.62567,9.12325 4.07963,6.145283 6.5412,12.238925 7.7978,19.279314 0.36148,2.04843 0.44754,3.21897 0.5164,6.5412 0.10324,4.33785 -0.12049,7.10925 -0.80904,10.50035 -4.95754,24.35736 -29.0739,43.53338 -59.12899,47.06218 -20.0195,2.35829 -40.228358,-2.35826 -55.600171,-12.96189 -4.664907,-3.21896 -10.190499,-8.29699 -13.409456,-12.32498 -4.16571,-5.23296 -7.522378,-11.49875 -9.295386,-17.3514 -2.272206,-7.47074 -2.633693,-15.81937 -1.032821,-23.37618 2.134496,-10.121637 7.384667,-19.193244 15.784942,-27.283675 l 2.495985,-2.392701 1.03282,-5.422308 c 1.704153,-8.813403 6.644478,-33.050261 6.747761,-33.050261 0.05164,0.01722 1.325454,1.807436 2.840257,4.010787 z"
     id="path16"
     inkscape:connector-curvature="0"
     style="stroke-width:0.17213677" />
  <path
     d="m 53.652915,97.623382 c -2.650905,3.322238 -4.837042,6.110858 -4.871469,6.196928 -0.03444,0.0689 1.583658,0.1377 3.614873,0.1377 h 3.666512 l 6.196925,-6.196918 6.196924,-6.196927 -4.991967,0.01721 h -4.991966 z m 76.773005,0.13771 6.19692,6.196918 3.68373,-0.0344 3.66652,-0.0516 -4.92311,-6.162502 -4.92311,-6.145283 h -9.89788 z m -54.188658,4.286198 c -1.11889,0.65413 -2.065642,1.22217 -2.117283,1.27382 -0.05164,0.0516 4.923112,8.84783 11.051181,19.57195 6.110856,10.7069 11.188891,19.41703 11.257745,19.33096 0.120497,-0.13771 22.205655,-38.78242 22.205655,-38.86849 0,-0.0861 -4.30342,-2.49598 -4.42391,-2.49598 -0.0861,0 -1.22218,1.92794 -2.54764,4.269 l -2.42714,4.25177 -12.893034,0.0344 -12.910257,0.0345 -2.409915,-4.23456 c -1.325453,-2.34107 -2.47877,-4.269 -2.582052,-4.28621 -0.08606,-0.0345 -1.084461,0.48199 -2.20335,1.11888 z m 29.831298,12.73813 c 0,0.34427 -9.691295,17.07596 -9.829006,16.93826 -0.103276,-0.10324 -8.899471,-15.42345 -9.639659,-16.80054 -0.154922,-0.27543 0.361487,-0.29264 9.656874,-0.29264 5.542801,0 9.811791,0.0689 9.811791,0.15492 z M 215.9779,34.07048 c -0.0516,0.08606 -0.0689,0.172137 -0.0172,0.172137 0.0345,0 0.20657,0.05164 0.34429,0.103287 0.20655,0.08606 0.25821,0.03444 0.17215,-0.172137 -0.12052,-0.309845 -0.34428,-0.361485 -0.49922,-0.103277 z m 9.15767,22.6532 c -0.0516,0.32706 -0.0172,0.413129 0.17214,0.344274 0.13771,-0.05164 0.27542,-0.103277 0.30985,-0.103277 0.0344,0 0.0172,-0.154923 -0.0345,-0.344273 -0.12049,-0.481983 -0.34427,-0.430342 -0.44755,0.103287 z M 6.7456441,148.81686 c 0,0.1377 0.086067,0.20656 0.1721364,0.15493 0.1032878,-0.0689 0.1377097,-0.18935 0.086067,-0.27542 -0.1549231,-0.241 -0.2582055,-0.18935 -0.2582055,0.12049 z m 6.8338299,7.24697 c -0.223777,0.20655 -0.120496,0.32704 0.671334,0.8951 l 0.791828,0.55084 -0.361487,-0.48199 c -0.860683,-1.17053 -0.89511,-1.18774 -1.101675,-0.96395 z"
     id="path18"
     inkscape:connector-curvature="0"
     style="stroke-width:0.17213677" />
</svg>
