<?xml version="1.0" encoding="UTF-8" standalone="no"?>
<svg
   xmlns:dc="http://purl.org/dc/elements/1.1/"
   xmlns:cc="http://creativecommons.org/ns#"
   xmlns:rdf="http://www.w3.org/1999/02/22-rdf-syntax-ns#"
   xmlns:svg="http://www.w3.org/2000/svg"
   xmlns="http://www.w3.org/2000/svg"
   xmlns:sodipodi="http://sodipodi.sourceforge.net/DTD/sodipodi-0.dtd"
   xmlns:inkscape="http://www.inkscape.org/namespaces/inkscape"
   version="1.0"
   width="256"
   height="256"
   viewBox="0 0 192.00008 192.00008"
   id="svg8"
   sodipodi:docname="monar-no-face.svg"
   inkscape:version="0.92.4 (5da689c313, 2019-01-14)"
   inkscape:export-filename="/tmp/work/MonaCoin.Icon.20220521092535/docs/asset/image/monar-no-face.svg.png"
   inkscape:export-xdpi="96"
   inkscape:export-ydpi="96">
  <metadata
     id="metadata14">
    <rdf:RDF>
      <cc:Work
         rdf:about="">
        <dc:format>image/svg+xml</dc:format>
        <dc:type
           rdf:resource="http://purl.org/dc/dcmitype/StillImage" />
        <dc:title></dc:title>
      </cc:Work>
    </rdf:RDF>
  </metadata>
  <defs
     id="defs12" />
  <sodipodi:namedview
     pagecolor="#ffffff"
     bordercolor="#666666"
     borderopacity="1"
     objecttolerance="10"
     gridtolerance="10"
     guidetolerance="10"
     inkscape:pageopacity="0"
     inkscape:pageshadow="2"
     inkscape:window-width="1920"
     inkscape:window-height="1027"
     id="namedview10"
     showgrid="false"
     inkscape:pagecheckerboard="true"
     inkscape:zoom="2.3930996"
     inkscape:cx="63.806198"
     inkscape:cy="126.59247"
     inkscape:window-x="0"
     inkscape:window-y="36"
     inkscape:window-maximized="1"
     inkscape:current-layer="svg8" />
  <style
     type="text/css"
     id="style2">@media (prefers-color-scheme:light){#outline{fill:#000}#ear,ellipse{fill:#fff}}@media (prefers-color-scheme:dark){#outline{fill:#fff}#ear,ellipse{fill:#000}}</style>
  <ellipse
     cx="95.019798"
     cy="114.72727"
     rx="91.86879"
     ry="74.124603"
     id="ellipse4"
     style="fill:#ffffff;stroke:none;stroke-width:0.16143101" />
  <path
     id="ear"
     d="M 29.194997,66.932713 40.642716,9.4074148 65.541838,46.898963 h 60.387152 l 24.89896,-36.060462 12.30637,54.090693 z"
     inkscape:connector-curvature="0"
     style="fill:#ffffff;stroke:none;stroke-width:0.16143101" />
  <path
     id="outline"
     d="m 38.391238,0.99524484 c 0,0.0484273 -0.581152,2.95418686 -1.307591,6.45724016 -3.083333,15.093802 -5.19808,25.522245 -7.974693,39.405313 l -2.97033,14.819367 -2.986474,3.099476 c -4.616928,4.810646 -6.876962,7.554972 -9.653576,11.65532 C 1.8916854,93.59208 -1.4015075,113.12523 4.087147,132.23866 c 2.7281847,9.52444 7.296681,18.01571 14.189785,26.3617 2.034032,2.4699 7.4904,7.91011 10.105583,10.08942 19.04886,15.85254 44.764822,24.2308 71.384802,23.22994 3.890483,-0.12915 6.650953,-0.33901 9.815013,-0.72645 30.31674,-3.61605 57.03357,-19.63002 70.73907,-42.40792 14.49651,-24.1178 12.64004,-53.369105 -4.82679,-75.937157 -2.11475,-2.728185 -3.71292,-4.552356 -7.08682,-8.071552 l -2.98647,-3.099476 -2.48605,-12.397902 c -4.95592,-24.715089 -9.71815,-48.0095854 -9.86343,-48.1387303 -0.0968,-0.1130018 -0.19372,0 -2.19546,2.808899 -4.52007,6.3442393 -14.25436,20.5340263 -20.5986,30.0423133 -2.30846,3.470767 -4.32634,6.360383 -4.4555,6.408812 -0.14528,0.06458 -1.84031,-0.25829 -3.77748,-0.710296 -6.00524,-1.388307 -12.38176,-2.38918 -17.2247,-2.712042 -3.13175,-0.226004 -14.980795,-0.226004 -17.999555,-0.01614 -5.391796,0.387435 -11.332458,1.356021 -18.386993,2.986474 -1.372165,0.322863 -2.582897,0.548866 -2.695899,0.500437 C 65.640803,40.4167 63.526048,37.333371 61.04001,33.620457 54.550483,23.886163 46.252928,11.811122 41.442284,5.0794496 38.617242,1.1243898 38.407381,0.83381298 38.391238,0.99524484 Z M 43.105023,18.688084 c 3.938917,5.537085 14.512649,21.373468 17.7897,26.619975 1.033158,1.662741 1.840313,2.792758 1.985601,2.792758 0.145287,0 1.388306,-0.322862 2.776614,-0.710296 10.46073,-2.986474 19.662299,-4.294066 30.155314,-4.294066 10.509168,0 20.001308,1.372164 30.429758,4.37478 1.21073,0.339005 2.30845,0.629582 2.4376,0.629582 0.1453,0 1.00087,-1.210733 1.9856,-2.792758 4.2295,-6.780102 18.62914,-28.185855 18.98429,-28.201999 0.0645,0 0.19372,0.274433 0.29058,0.597295 0.0808,0.339005 2.27617,11.138741 4.87521,24.020936 l 4.69765,23.407499 3.98734,4.035775 c 5.16581,5.246508 7.02225,7.474257 9.89572,11.881324 4.90751,7.538828 8.02312,15.384372 9.47601,23.956361 0.58115,3.35777 0.80715,10.25088 0.48428,14.46422 -0.88786,11.31631 -5.5855,22.93934 -13.28576,32.78665 -2.93805,3.77748 -7.57112,8.53969 -11.25175,11.60688 -20.55016,17.11169 -49.15574,24.65052 -78.213329,20.63088 -5.779232,-0.79101 -13.188915,-2.5506 -18.645284,-4.43934 -14.480362,-4.95594 -25.683676,-11.9782 -35.853829,-22.45506 -4.584642,-4.72993 -8.136125,-9.70202 -11.300173,-15.78796 -3.535339,-6.79624 -5.4886537,-13.17277 -6.4733826,-21.06674 -0.2905755,-2.29232 -0.2744321,-10.63831 0,-12.9952 C 9.8825198,95.125674 14.93531,83.938503 23.781731,73.606918 c 0.88787,-1.017015 3.115618,-3.357765 4.955931,-5.181935 l 3.357766,-3.32548 0.968586,-5.068934 c 1.937172,-10.041009 7.587258,-37.88786 8.4267,-41.520058 0.177574,-0.77487 0.387433,-1.372163 0.46815,-1.323735 0.08071,0.06458 0.597294,0.726439 1.146159,1.501308 z"
     inkscape:connector-curvature="0"
     style="fill:#000000;stroke:none;stroke-width:0.01614311" />
</svg>
