<?xml version="1.0" encoding="UTF-8" standalone="no"?>
<svg
   xmlns:dc="http://purl.org/dc/elements/1.1/"
   xmlns:cc="http://creativecommons.org/ns#"
   xmlns:rdf="http://www.w3.org/1999/02/22-rdf-syntax-ns#"
   xmlns:svg="http://www.w3.org/2000/svg"
   xmlns="http://www.w3.org/2000/svg"
   xmlns:sodipodi="http://sodipodi.sourceforge.net/DTD/sodipodi-0.dtd"
   xmlns:inkscape="http://www.inkscape.org/namespaces/inkscape"
   version="1.0"
   width="256"
   height="256"
   viewBox="0 0 192.00008 192.00008"
   id="svg938"
   sodipodi:docname="monar-mark-gold.svg"
   inkscape:version="0.92.4 (5da689c313, 2019-01-14)"
   inkscape:export-filename="/tmp/work/MonaCoin.Icon.20220521092535/docs/asset/image/monar-mark-gold.svg.png"
   inkscape:export-xdpi="96"
   inkscape:export-ydpi="96">
  <metadata
     id="metadata16">
    <rdf:RDF>
      <cc:Work
         rdf:about="">
        <dc:format>image/svg+xml</dc:format>
        <dc:type
           rdf:resource="http://purl.org/dc/dcmitype/StillImage" />
        <dc:title></dc:title>
      </cc:Work>
    </rdf:RDF>
  </metadata>
  <defs
     id="defs14" />
  <sodipodi:namedview
     pagecolor="#ffffff"
     bordercolor="#666666"
     borderopacity="1"
     objecttolerance="10"
     gridtolerance="10"
     guidetolerance="10"
     inkscape:pageopacity="0"
     inkscape:pageshadow="2"
     inkscape:window-width="1920"
     inkscape:window-height="1027"
     id="namedview12"
     showgrid="false"
     inkscape:pagecheckerboard="true"
     inkscape:zoom="2.3930996"
     inkscape:cx="69.54673"
     inkscape:cy="154.54511"
     inkscape:window-x="0"
     inkscape:window-y="36"
     inkscape:window-maximized="1"
     inkscape:current-layer="svg938" />
  <style
     type="text/css"
     id="style934">@media (prefers-color-scheme:light){#mark,#outline{fill:#000}}@media (prefers-color-scheme:dark){#outline{fill:#fff}}</style>
  <g
     id="face-color"
     style="display:inline"
     transform="matrix(0.16118928,0,0,0.16118928,1.8802984,0.93482908)">
    <ellipse
       style="opacity:1;fill:#ffce00;fill-opacity:1;stroke:#ffce00;stroke-width:0;stroke-miterlimit:4;stroke-dasharray:none;stroke-opacity:1"
       id="path2409"
       ry="459.33801"
       rx="560.21997"
       cy="705.46301"
       cx="577.39203" />
    <path
       style="opacity:0.84600004;fill:#d45500;fill-opacity:1;stroke:#ffce00;stroke-width:0.75000024;stroke-opacity:1"
       id="path2381"
       d="m 997.378,543.764 a 464.346,289.054 0 0 1 -0.007,1.55"
       inkscape:connector-curvature="0" />
    <path
       style="opacity:0.84600004;fill:#d45572;fill-opacity:1;stroke:#ffce00;stroke-width:0;stroke-miterlimit:4;stroke-dasharray:none;stroke-opacity:1"
       id="path2385"
       d="m 1329.36,618.89 a 603.15,347.008 0 0 1 -0.01,1.859"
       inkscape:connector-curvature="0" />
  </g>
  <g
     id="ear-color"
     style="display:inline"
     transform="matrix(0.16118928,0,0,0.16118928,1.8802984,0.93482908)">
    <path
       style="fill:#ffce00;fill-opacity:1;stroke:none;stroke-width:0.75000024px;stroke-linecap:butt;stroke-linejoin:miter;stroke-opacity:1"
       d="M 176.008,380.635 238.97,48.653 392.083,277.606 784.165,273.313 925.83,57.238 993.085,393.514 Z"
       id="path2414"
       inkscape:connector-curvature="0" />
  </g>
  <path
     id="outline"
     d="m 38.716399,0.96787248 c 0,0.048362 -0.580281,2.94976422 -1.305633,6.44757052 -3.078716,15.071198 -5.190294,25.484026 -7.962751,39.346304 l -2.965882,14.797176 -2.982002,3.094834 c -4.610014,4.803441 -6.866663,7.543659 -9.639118,11.637867 -11.5895082,17.134419 -14.8777696,36.638316 -9.3973346,55.723136 2.7240988,9.51016 7.2857546,17.98872 14.1685366,26.3222 2.030984,2.4662 7.479182,7.89828 10.090449,10.07433 19.020335,15.8288 44.697786,24.19452 71.277896,23.19515 3.88466,-0.12896 6.641,-0.3385 9.80031,-0.72536 30.27135,-3.61064 56.94817,-19.60062 70.63314,-42.34442 14.4748,-24.08168 12.62113,-53.289173 -4.81957,-75.823439 -2.11157,-2.724099 -3.70734,-4.545538 -7.0762,-8.059464 l -2.982,-3.094834 -2.48231,-12.379337 c -4.94852,-24.678078 -9.7036,-47.9376917 -9.84867,-48.0666428 -0.0967,-0.1128341 -0.19343,0 -2.19217,2.8046935 -4.5133,6.3347383 -14.23301,20.5032763 -20.56775,29.9973253 -2.30501,3.46557 -4.31988,6.350857 -4.44883,6.399214 -0.14506,0.06447 -1.83755,-0.257903 -3.77183,-0.709233 -5.99625,-1.386228 -12.36322,-2.385601 -17.19889,-2.707979 -3.12708,-0.225666 -14.958367,-0.225666 -17.972607,-0.01613 -5.383723,0.386856 -11.315487,1.353991 -18.35946,2.982002 -1.370108,0.322379 -2.579028,0.548046 -2.69186,0.499688 -0.0967,-0.03224 -2.208293,-3.110953 -4.690608,-6.818308 C 54.851446,23.824513 46.566317,11.767555 41.762876,5.0459612 38.942064,1.0968237 38.732518,0.80668368 38.716399,0.96787248 Z M 44.72876,20.536251 c 5.141938,7.430827 13.733326,20.358206 16.554139,24.887626 0.918778,1.466822 1.660248,2.675741 1.676368,2.675741 0,0.01612 0.88654,-0.209545 1.95039,-0.515805 7.704848,-2.159936 12.717834,-3.17543 19.342713,-3.9169 13.894513,-1.547417 27.46665,-0.402974 41.42564,3.513926 l 3.38498,0.951018 0.64475,-1.047732 c 3.91691,-6.334737 17.5374,-26.75742 19.63286,-29.433163 0.38686,-0.499686 0.51581,-0.580281 0.61252,-0.386853 0.0805,0.128952 2.28888,10.928633 4.91628,23.984965 l 4.77119,23.759299 3.90078,3.949138 c 4.99687,5.061344 6.68936,7.076209 9.59077,11.412199 5.59327,8.365724 9.25226,18.101551 10.18716,27.11204 0.30626,2.93365 0.2579,11.4122 -0.0805,13.94287 -1.85367,14.20078 -8.6075,27.1604 -19.85851,38.12127 -13.33037,12.97574 -31.60922,21.64771 -51.80624,24.56525 -5.14194,0.75758 -7.5759,0.9349 -13.797798,1.01548 -6.318622,0.0967 -9.252267,-0.0322 -14.16854,-0.61252 C 68.165718,182.7249 53.4169,177.53461 41.214871,169.62021 33.719569,164.7523 25.950246,157.56327 21.033973,150.93838 14.054477,141.52492 9.9763885,131.40224 8.7029941,120.2963 c -0.2740218,-2.36948 -0.2740218,-9.94538 0,-12.41158 C 9.928031,96.923853 14.086715,86.591623 21.050092,77.355476 c 2.288887,-3.046482 4.674489,-5.722224 8.12394,-9.139435 l 3.272141,-3.239906 0.886543,-4.577775 c 1.724724,-8.962125 7.65649,-38.250216 8.543031,-42.199354 0.322378,-1.434584 0.128951,-1.611892 2.85305,2.337245 z"
     inkscape:connector-curvature="0"
     style="stroke-width:0.16118926" />
  <path
     id="mark"
     d="m 59.122961,83.674086 c -1.49906,9.316745 -3.513926,21.808924 -4.481061,27.756804 -0.951017,5.93176 -1.740844,10.8964 -1.740844,10.9931 0,0.1612 -1.918153,0.20955 -8.73646,0.24179 l -8.752577,0.0484 -0.04836,4.14256 -0.03223,4.15869 h 16.151157 l -0.0806,0.51581 c -0.06447,0.29013 -0.193427,1.12831 -0.29014,1.85366 l -0.193428,1.33788 -7.753204,0.0322 -7.753205,0.0484 -0.04836,4.14256 -0.03223,4.15868 h 6.882784 c 3.804066,0 6.979496,0.0646 7.092327,0.12894 0.14507,0.0967 0.04836,1.03162 -0.419091,3.90079 l -0.596401,3.78794 7.801561,0.0484 c 4.303753,0.0162 7.833799,0.0162 7.866037,-0.0162 0.01612,-0.0162 0.30626,-1.70861 0.644757,-3.73959 0.322379,-2.04711 0.660876,-3.80407 0.74147,-3.9169 0.128953,-0.14508 1.370109,-0.19342 5.222533,-0.19342 h 5.061344 v -8.38178 h -4.529416 c -4.223159,0 -4.5133,-0.0162 -4.432705,-0.29015 0.04836,-0.14506 0.161189,-0.8543 0.257903,-1.56353 0.09671,-0.70924 0.209545,-1.41846 0.257903,-1.57966 0.0806,-0.2579 0.419093,-0.27401 4.271515,-0.27401 h 4.174803 v -8.38185 h -7.092329 l 0.0806,-0.37074 c 0.04836,-0.19342 0.402973,-2.38559 0.805947,-4.86792 2.450076,-15.23238 2.901405,-17.972594 2.982001,-17.972594 0.06447,0 0.225665,0.386853 0.354615,0.838194 0.128953,0.46745 2.063224,6.4798 4.271516,13.34646 2.224413,6.86666 5.835053,18.10156 8.043346,24.93598 l 3.997493,12.45994 H 104.8846 l 3.01424,-9.39734 c 2.64351,-8.26901 10.3806,-32.35069 12.71784,-39.57197 0.46745,-1.43459 0.90265,-2.562917 0.96713,-2.498434 0.0484,0.08053 0.22567,0.886544 0.35462,1.821434 0.14508,0.9349 1.46682,9.12332 2.93364,18.2144 1.46684,9.09107 3.17543,19.6812 3.78796,23.53364 0.62863,3.85242 1.17668,7.20515 1.22503,7.44693 l 0.0967,0.45134 h 7.80155 c 6.67324,0 7.80157,-0.0322 7.80157,-0.22567 0,-0.22567 -1.19281,-7.64037 -7.07622,-44.18198 -1.49905,-9.316747 -3.53004,-21.937867 -4.51329,-28.046933 -0.98325,-6.125197 -1.82144,-11.283254 -1.8698,-11.492799 l -0.0805,-0.354617 h -15.78043 l -0.56417,1.724726 c -0.29014,0.967135 -2.56291,7.978868 -5.01299,15.603126 -2.45007,7.624245 -6.17354,19.149287 -8.25288,25.629087 -5.109702,15.90939 -5.383731,16.73145 -5.528793,16.58638 -0.06446,-0.0805 -0.677005,-1.85369 -1.337879,-3.93302 -0.660876,-2.07933 -3.256023,-10.13881 -5.754456,-17.89201 C 81.899048,79.85396 77.724246,66.845991 77.724246,66.765396 c 0,-0.03223 -3.578403,-0.06447 -7.930513,-0.06447 h -7.94664 z"
     inkscape:connector-curvature="0"
     style="stroke-width:0.16118926" />
</svg>
