<svg xmlns="http://www.w3.org/2000/svg" version="1.0" width="1577.87" height="1577.87" viewBox="0 0 1183.403 1183.403"><style type="text/css">@media (prefers-color-scheme:light){#outline{fill:#000}#ear,ellipse{fill:#fff}}@media (prefers-color-scheme:dark){#outline{fill:#fff}#ear,ellipse{fill:#000}}</style><ellipse fill="#fff" stroke="none" cx="586.818" cy="704.729" rx="569.09" ry="459.172"/><path id="ear" fill="#fff" stroke="none" d="m179.06 408.661 70.914-356.346 154.24 232.245h374.074L932.527 61.18l76.233 335.07Z"/><path id="outline" fill="#000" stroke="none" d="M8350 17518c0-3-36-183-81-400-191-935-322-1581-494-2441l-184-918-185-192c-286-298-426-468-598-722-719-1063-923-2273-583-3457 169-590 452-1116 879-1633 126-153 464-490 626-625 1180-982 2773-1501 4422-1439 241 8 412 21 608 45 1878 224 3533 1216 4382 2627 898 1494 783 3306-299 4704-131 169-230 282-439 500l-185 192-154 768c-307 1531-602 2974-611 2982-6 7-12 0-136-174-280-393-883-1272-1276-1861-143-215-268-394-276-397-9-4-114 16-234 44-372 86-767 148-1067 168-194 14-928 14-1115 1-334-24-702-84-1139-185-85-20-160-34-167-31-6 2-137 193-291 423-402 603-916 1351-1214 1768-175 245-188 263-189 253zm292-1096c244-343 899-1324 1102-1649 64-103 114-173 123-173s86 20 172 44c648 185 1218 266 1868 266 651 0 1239-85 1885-271 75-21 143-39 151-39 9 0 62 75 123 173 262 420 1154 1746 1176 1747 4 0 12-17 18-37 5-21 141-690 302-1488l291-1450 247-250c320-325 435-463 613-736 304-467 497-953 587-1484 36-208 50-635 30-896-55-701-346-1421-823-2031-182-234-469-529-697-719-1273-1060-3045-1527-4845-1278-358 49-817 158-1155 275-897 307-1591 742-2221 1391-284 293-504 601-700 978-219 421-340 816-401 1305-18 142-17 659 0 805 96 782 409 1475 957 2115 55 63 193 208 307 321l208 206 60 314c120 622 470 2347 522 2572 11 48 24 85 29 82 5-4 37-45 71-93z" transform="matrix(.1 0 0 -.1 -598.973 1752.005)"/></svg>
