<svg xmlns="http://www.w3.org/2000/svg" version="1.0" width="1110.666" height="1110.682" viewBox="0 0 833 833.012" id="svg8"><style type="text/css" id="style2">@media (prefers-color-scheme:light){path{fill:#000}ellipse{fill:#ffce00}}@media (prefers-color-scheme:dark){path{fill:#ffce00}ellipse{fill:#000}}</style><ellipse cx="429.212" cy="406.019" rx="360.169" ry="294.492" id="ellipse4" fill="#ffce00"/><path d="M385.5.612c-87 7.3-162.8 37.4-231.2 91.8-17.1 13.6-48.4 44.9-62 62-51.5 64.6-80.6 134.5-90.5 217.2-2.4 20.3-2.4 69.7 0 90 9.9 82.7 39 152.6 90.5 217.2 13.6 17.1 44.9 48.4 62 62 64.6 51.5 134.5 80.6 217.2 90.5 10.8 1.3 22.2 1.7 45 1.7s34.2-.4 45-1.7c82.7-9.9 152.6-39 217.2-90.5 17.1-13.6 48.4-44.9 62-62 51.5-64.6 80.6-134.5 90.5-217.2 2.4-20.3 2.4-69.7 0-90-9.9-82.7-39-152.6-90.5-217.2-13.6-17.1-44.9-48.4-62-62-64.3-51.2-135-80.8-216.2-90.3-15.8-1.9-61.6-2.8-77-1.5zm-12.5 361.2c24.2 75.2 44.3 136.4 44.6 136 .4-.5 72.7-224.5 85.7-265.5l2.4-7.7h72.8l.5 2.2c.3 1.3 14.2 87.6 31 191.8 16.8 104.2 30.7 190.5 31 191.7l.5 2.3h-72.8l-.6-2.8c-.3-1.5-8.9-54.5-19.1-117.7-10.2-63.3-18.6-115.3-18.8-115.8-.1-.4-17.3 52.5-38.3 117.5l-38.1 118.3-36.4.3-36.5.2-37.9-118c-24.5-76-38.3-117.3-38.7-116.2-.6 1.3-16.8 100.5-16.8 102.6 0 .3 7.2.6 16 .6h16v39l-19.2.2-19.2.3-.7 3.5c-.4 1.9-1 5.6-1.4 8.2l-.6 4.8h41.1v39h-47.6l-2.8 18-2.8 18h-36.4c-20 0-36.4-.3-36.4-.8 0-.4 1.3-8.5 2.8-18l2.8-17.2h-64.6v-39h70.8l1.1-6.3c.6-3.5 1.1-7.3 1.1-8.5v-2.2h-73v-39h79.8l.5-2.3c.3-1.2 9.6-59 20.8-128.5l20.3-126.2 36.5.2 36.6.3z" id="path6" fill="#000" stroke-width=".1"/></svg>
