<svg xmlns="http://www.w3.org/2000/svg" version="1.0" width="1131.077" height="1131.786" viewBox="0 0 848.308 848.84" id="svg10"><style type="text/css" id="style2">@media (prefers-color-scheme:light){ellipse{fill:#ffce00}path{fill:#000}}@media (prefers-color-scheme:dark){ellipse{fill:#000}path{fill:#ffce00}}</style><ellipse cx="419.772" cy="424.516" rx="417.775" ry="414.752" id="ellipse4" fill="#ffce00"/><path d="M392.9 1.011c-103.5 8.2-196.6 50.9-269.1 123.3-61.8 61.8-102.9 140.6-117.8 225.8-5 28.4-6 41.1-6 74.3 0 33.2 1 45.9 6 74.3 28.6 163.3 152.7 296.8 313.4 337.1 80 20.1 163.5 16.9 240.6-9.3 125.4-42.6 223.4-140.6 266-266 38.8-114.1 26.5-242.2-33.1-346.2-76.7-133.7-218.4-215.4-371.4-214.3-10.2.1-23.1.5-28.6 1zm75.5 16.4c81.5 9.4 155.1 40.6 217.5 92.4 14.9 12.4 38.5 35.9 51.2 51.1 47.8 57 79.3 125.5 90.7 197 4.2 26.2 5 37.2 5 66.5 0 15.9-.5 33-1.2 39.5-5.9 53.4-19 98.6-41.8 144-39.7 79.1-103.3 142.7-182.4 182.4-45.4 22.8-90.6 35.9-144 41.8-15 1.6-64 1.6-79 0-53.4-5.9-98.6-19-144-41.8-39.9-20.1-72.2-43.3-104.4-75.2-54.2-53.6-91.4-118.9-109.6-192.7-8.3-33.5-11.4-60.5-11.4-98 0-29.3.8-40.3 5-66.5 11.4-71.5 42.9-140 90.7-197 12.7-15.2 36.3-38.7 51.2-51.1 48.1-39.9 103.8-68.1 164-82.9 23.7-5.8 41.6-8.6 75.5-11.4 9.8-.8 54.3.4 67 1.9z" id="path6"/><path d="M263 235.611c-.3 1.6-9.6 58.8-20.6 127.3-11 68.5-20.2 125.1-20.5 125.7-.3 1-9.4 1.3-40.5 1.3h-40l.2 19.2.3 19.3 36.8.3c24.7.1 36.7.6 36.7 1.3 0 .5-.5 4.1-1.1 7.9l-1.2 7-35.6.2-35.6.3-.3 19.2-.2 19.3h32.5c25.8 0 32.5.3 32.5 1.3 0 .7-1.1 8.1-2.5 16.5s-2.5 15.9-2.5 16.7c0 1.3 4.9 1.5 36 1.5h36l.4-2.2c.3-1.3 1.4-8.2 2.6-15.3 1.1-7.2 2.3-14.2 2.6-15.7l.6-2.8h46.8v-39h-20.6c-19.1 0-20.5-.1-20-1.8.2-.9.7-3.7 1.1-6.2 1.3-8.7-.6-8 20.6-8h18.9v-39h-32.2l.6-2.8c.3-1.5 4.2-25.2 8.6-52.7 4.4-27.5 8.2-50.4 8.3-50.8.1-.5 17.4 52.4 38.4 117.5l38.1 118.3 36.4.3 36.4.2 37.8-117.2c20.8-64.5 38.1-117.6 38.4-118 .4-.4 9.2 52.4 19.7 117.3l19 117.9h72.7l-.5-2.3c-.3-1.2-14.4-88.3-31.3-193.5l-30.8-191.2-36.5.2-36.5.3-44 136.7c-24.2 75.2-44.3 136.2-44.7 135.5-.5-.9-75.6-233.6-85.5-264.9l-2.5-7.8h-72.7z" id="path8"/></svg>
