<?xml version="1.0" standalone="no"?>
<!DOCTYPE svg PUBLIC "-//W3C//DTD SVG 20010904//EN"
 "http://www.w3.org/TR/2001/REC-SVG-20010904/DTD/svg10.dtd">
<svg version="1.0" xmlns="http://www.w3.org/2000/svg"
 width="2377.000000pt" height="2377.000000pt" viewBox="0 0 2377.000000 2377.000000"
 preserveAspectRatio="xMidYMid meet">

<g transform="translate(0.000000,2377.000000) scale(0.100000,-0.100000)"
fill="#000000" stroke="none">
<path d="M8350 17518 c0 -3 -36 -183 -81 -400 -191 -935 -322 -1581 -494
-2441 l-184 -918 -185 -192 c-286 -298 -426 -468 -598 -722 -719 -1063 -923
-2273 -583 -3457 169 -590 452 -1116 879 -1633 126 -153 464 -490 626 -625
1180 -982 2773 -1501 4422 -1439 241 8 412 21 608 45 1878 224 3533 1216 4382
2627 898 1494 783 3306 -299 4704 -131 169 -230 282 -439 500 l-185 192 -154
768 c-307 1531 -602 2974 -611 2982 -6 7 -12 0 -136 -174 -280 -393 -883
-1272 -1276 -1861 -143 -215 -268 -394 -276 -397 -9 -4 -114 16 -234 44 -372
86 -767 148 -1067 168 -194 14 -928 14 -1115 1 -334 -24 -702 -84 -1139 -185
-85 -20 -160 -34 -167 -31 -6 2 -137 193 -291 423 -402 603 -916 1351 -1214
1768 -175 245 -188 263 -189 253z m292 -1096 c244 -343 899 -1324 1102 -1649
64 -103 114 -173 123 -173 9 0 86 20 172 44 648 185 1218 266 1868 266 651 0
1239 -85 1885 -271 75 -21 143 -39 151 -39 9 0 62 75 123 173 262 420 1154
1746 1176 1747 4 0 12 -17 18 -37 5 -21 141 -690 302 -1488 l291 -1450 247
-250 c320 -325 435 -463 613 -736 304 -467 497 -953 587 -1484 36 -208 50
-635 30 -896 -55 -701 -346 -1421 -823 -2031 -182 -234 -469 -529 -697 -719
-1273 -1060 -3045 -1527 -4845 -1278 -358 49 -817 158 -1155 275 -897 307
-1591 742 -2221 1391 -284 293 -504 601 -700 978 -219 421 -340 816 -401 1305
-18 142 -17 659 0 805 96 782 409 1475 957 2115 55 63 193 208 307 321 l208
206 60 314 c120 622 470 2347 522 2572 11 48 24 85 29 82 5 -4 37 -45 71 -93z"/>
<path d="M8813 12013 c-358 -450 -539 -680 -560 -709 l-23 -32 31 -6 c18 -3
142 -6 278 -6 l246 0 475 475 475 475 -382 0 -383 0 -157 -197z"/>
<path d="M14550 11735 l475 -475 235 1 c129 0 255 4 279 7 l43 7 -373 467
-374 468 -380 0 -380 0 475 -475z"/>
<path d="M10444 11453 c-167 -87 -255 -145 -249 -161 33 -87 1669 -2940 1708
-2979 12 -12 123 178 1279 2206 l447 785 -32 19 c-75 46 -296 167 -304 167
-10 0 -58 -79 -256 -425 l-132 -230 -1001 -3 -1002 -2 -97 172 c-129 230 -275
477 -285 483 -4 3 -38 -12 -76 -32z m2211 -1035 c9 -9 -253 -475 -563 -998
-166 -280 -184 -310 -194 -310 -10 0 -748 1281 -748 1300 0 5 8 11 18 13 27 8
1479 3 1487 -5z"/>
</g>
</svg>
