<svg xmlns="http://www.w3.org/2000/svg" version="1.0" width="1557.117" height="1577.87" viewBox="0 0 1167.838 1183.403" id="svg938"><style type="text/css" id="style934">@media (prefers-color-scheme:light){#mark,#outline{fill:#000}}@media (prefers-color-scheme:dark){#mark,#outline{fill:#fff}}</style>

<g id="face-color" style="display:inline"><ellipse style="opacity:1;fill:#ffce00;fill-opacity:1;stroke:#ffce00;stroke-width:0;stroke-miterlimit:4;stroke-dasharray:none;stroke-opacity:1" id="path2409" ry="459.338" rx="560.22" cy="705.463" cx="577.392"/><path style="opacity:.84600004;fill:#d45500;fill-opacity:1;stroke:#ffce00;stroke-width:.75000024;stroke-opacity:1" id="path2381" d="M997.378 543.764a464.346 289.054 0 0 1-.007 1.55"/><path style="opacity:.84600004;fill:#d45572;fill-opacity:1;stroke:#ffce00;stroke-width:0;stroke-miterlimit:4;stroke-dasharray:none;stroke-opacity:1" id="path2385" d="M1329.36 618.89a603.15 347.008 0 0 1-.01 1.859"/></g>

<g id="ear-color" style="display:inline"><path style="fill:#ffce00;stroke:none;stroke-width:.75000024px;stroke-linecap:butt;stroke-linejoin:miter;stroke-opacity:1;fill-opacity:1" d="M176.008 380.635 238.97 48.653l153.113 228.953 392.082-4.293L925.83 57.238l67.255 336.276Z" id="path2414"/></g>

<path id="outline" d="M228.527.205c0 .3-3.6 18.3-8.1 40-19.1 93.5-32.2 158.1-49.4 244.1l-18.4 91.8-18.5 19.2c-28.6 29.8-42.6 46.8-59.8 72.2-71.9 106.3-92.3 227.3-58.3 345.7 16.9 59 45.2 111.6 87.9 163.3 12.6 15.3 46.4 49 62.6 62.5 118 98.2 277.3 150.1 442.2 143.9 24.1-.8 41.2-2.1 60.8-4.5 187.8-22.4 353.3-121.6 438.2-262.7 89.8-149.4 78.3-330.6-29.9-470.4-13.1-16.9-23-28.2-43.9-50l-18.5-19.2-15.4-76.8c-30.7-153.1-60.2-297.4-61.1-298.2-.6-.7-1.2 0-13.6 17.4-28 39.3-88.3 127.2-127.6 186.1-14.3 21.5-26.8 39.4-27.6 39.7-.9.4-11.4-1.6-23.4-4.4-37.2-8.6-76.7-14.8-106.7-16.8-19.4-1.4-92.8-1.4-111.5-.1-33.4 2.4-70.2 8.4-113.9 18.5-8.5 2-16 3.4-16.7 3.1-.6-.2-13.7-19.3-29.1-42.3-40.2-60.3-91.6-135.1-121.4-176.8-17.5-24.5-18.8-26.3-18.9-25.3zm37.3 121.4c31.9 46.1 85.2 126.3 102.7 154.4 5.7 9.1 10.3 16.6 10.4 16.6 0 .1 5.5-1.3 12.1-3.2 47.8-13.4 78.9-19.7 120-24.3 86.2-9.6 170.4-2.5 257 21.8l21 5.9 4-6.5c24.3-39.3 108.8-166 121.8-182.6 2.4-3.1 3.2-3.6 3.8-2.4.5.8 14.2 67.8 30.5 148.8l29.6 147.4 24.2 24.5c31 31.4 41.5 43.9 59.5 70.8 34.7 51.9 57.4 112.3 63.2 168.2 1.9 18.2 1.6 70.8-.5 86.5-11.5 88.1-53.4 168.5-123.2 236.5-82.7 80.5-196.1 134.3-321.4 152.4-31.9 4.7-47 5.8-85.6 6.3-39.2.6-57.4-.2-87.9-3.8-95.8-11.1-187.3-43.3-263-92.4-46.5-30.2-94.7-74.8-125.2-115.9-43.3-58.4-68.6-121.2-76.5-190.1-1.7-14.7-1.7-61.7 0-77 7.6-68 33.4-132.1 76.6-189.4 14.2-18.9 29-35.5 50.4-56.7l20.3-20.1 5.5-28.4c10.7-55.6 47.5-237.3 53-261.8 2-8.9.8-10 17.7 14.5z"/>

<path id="mark" d="M355.127 513.305c-9.3 57.8-21.8 135.3-27.8 172.2-5.9 36.8-10.8 67.6-10.8 68.2 0 1-11.9 1.3-54.2 1.5l-54.3.3-.3 25.7-.2 25.8h100.2l-.5 3.2c-.4 1.8-1.2 7-1.8 11.5l-1.2 8.3-48.1.2-48.1.3-.3 25.7-.2 25.8h42.7c23.6 0 43.3.4 44 .8.9.6.3 6.4-2.6 24.2l-3.7 23.5 48.4.3c26.7.1 48.6.1 48.8-.1.1-.1 1.9-10.6 4-23.2 2-12.7 4.1-23.6 4.6-24.3.8-.9 8.5-1.2 32.4-1.2h31.4v-52h-28.1c-26.2 0-28-.1-27.5-1.8.3-.9 1-5.3 1.6-9.7.6-4.4 1.3-8.8 1.6-9.8.5-1.6 2.6-1.7 26.5-1.7h25.9v-52h-44l.5-2.3c.3-1.2 2.5-14.8 5-30.2 15.2-94.5 18-111.5 18.5-111.5.4 0 1.4 2.4 2.2 5.2.8 2.9 12.8 40.2 26.5 82.8 13.8 42.6 36.2 112.3 49.9 154.7l24.8 77.3h98.1l18.7-58.3c16.4-51.3 64.4-200.7 78.9-245.5 2.9-8.9 5.6-15.9 6-15.5.3.5 1.4 5.5 2.2 11.3.9 5.8 9.1 56.6 18.2 113s19.7 122.1 23.5 146c3.9 23.9 7.3 44.7 7.6 46.2l.6 2.8h48.4c41.4 0 48.4-.2 48.4-1.4 0-1.4-7.4-47.4-43.9-274.1-9.3-57.8-21.9-136.1-28-174-6.1-38-11.3-70-11.6-71.3l-.5-2.2h-97.9l-3.5 10.7c-1.8 6-15.9 49.5-31.1 96.8-15.2 47.3-38.3 118.8-51.2 159-31.7 98.7-33.4 103.8-34.3 102.9-.4-.5-4.2-11.5-8.3-24.4-4.1-12.9-20.2-62.9-35.7-111-49.1-152.4-75-233.1-75-233.6 0-.2-22.2-.4-49.2-.4h-49.3z"/></svg>
