<?xml version="1.0" encoding="UTF-8" standalone="no"?>
<svg
   xmlns:dc="http://purl.org/dc/elements/1.1/"
   xmlns:cc="http://creativecommons.org/ns#"
   xmlns:rdf="http://www.w3.org/1999/02/22-rdf-syntax-ns#"
   xmlns:svg="http://www.w3.org/2000/svg"
   xmlns="http://www.w3.org/2000/svg"
   xmlns:sodipodi="http://sodipodi.sourceforge.net/DTD/sodipodi-0.dtd"
   xmlns:inkscape="http://www.inkscape.org/namespaces/inkscape"
   version="1.0"
   width="2000.000000pt"
   height="2000.000000pt"
   viewBox="0 0 2000.000000 2000.000000"
   preserveAspectRatio="xMidYMid meet"
   id="svg28"
   sodipodi:docname="monar.svg"
   inkscape:version="0.92.4 (5da689c313, 2019-01-14)">
  <metadata
     id="metadata34">
    <rdf:RDF>
      <cc:Work
         rdf:about="">
        <dc:format>image/svg+xml</dc:format>
        <dc:type
           rdf:resource="http://purl.org/dc/dcmitype/StillImage" />
        <dc:title></dc:title>
      </cc:Work>
    </rdf:RDF>
  </metadata>
  <defs
     id="defs32" />
  <sodipodi:namedview
     pagecolor="#ffffff"
     bordercolor="#666666"
     borderopacity="1"
     objecttolerance="10"
     gridtolerance="10"
     guidetolerance="10"
     inkscape:pageopacity="0"
     inkscape:pageshadow="2"
     inkscape:window-width="998"
     inkscape:window-height="480"
     id="namedview30"
     showgrid="false"
     inkscape:zoom="0.0885"
     inkscape:cx="-1587.5706"
     inkscape:cy="1333.3333"
     inkscape:window-x="0"
     inkscape:window-y="36"
     inkscape:window-maximized="0"
     inkscape:current-layer="svg28" />
  <g
     transform="translate(0.000000,2000.000000) scale(0.100000,-0.100000)"
     fill="#000000"
     stroke="none"
     id="g26">
    <path
       d="M9620 18924 c-494 -27 -845 -67 -1245 -140 -2578 -472 -4826 -2067 -6134 -4353 -614 -1072 -1004 -2290 -1125 -3511 -34 -345 -40 -476 -40 -910 0 -520 17 -794 80 -1245 227 -1634 921 -3199 1980 -4465 325 -389 755 -819 1144 -1144 1266 -1059 2831 -1753 4465 -1980 451 -63 725 -80 1245 -80 520 0 794 17 1245 80 2722 379 5130 2013 6504 4413 614 1072 1004 2290 1125 3511 34 345 40 476 40 910 0 520 -17 794 -80 1245 -465 3342 -2807 6152 -6018 7220 -717 239 -1387 371 -2201 436 -130 10 -862 20 -985 13z m740 -304 c1250 -58 2390 -354 3493 -906 1192 -597 2233 -1468 3039 -2545 1418 -1893 1990 -4268 1592 -6617 -340 -2012 -1405 -3855 -2990 -5173 -1159 -964 -2569 -1614 -4046 -1863 -1218 -206 -2440 -155 -3633 154 -1316 340 -2568 1013 -3585 1929 -158 141 -465 447 -614 611 -1789 1965 -2566 4624 -2120 7258 340 2012 1405 3855 2990 5173 1640 1365 3755 2077 5874 1979z"
       id="path2" />
    <path
       d="M9670 18379 c-1558 -58 -3052 -545 -4355 -1420 -886 -595 -1679 -1388 -2274 -2274 -736 -1096 -1198 -2325 -1360 -3620 -223 -1774 119 -3553 981 -5113 632 -1143 1565 -2161 2653 -2891 1096 -736 2325 -1198 3620 -1360 1774 -223 3553 119 5113 981 1143 632 2161 1565 2891 2653 465 693 825 1446 1061 2220 626 2057 442 4282 -512 6188 -412 824 -923 1533 -1578 2187 -1075 1075 -2381 1821 -3845 2195 -592 152 -1148 231 -1793 255 -280 10 -300 10 -602 -1z m995 -183 c1062 -94 2023 -360 2950 -816 1149 -565 2164 -1405 2935 -2430 866 -1151 1412 -2497 1589 -3920 47 -379 55 -523 55 -1020 0 -497 -8 -641 -55 -1020 -273 -2200 -1434 -4203 -3209 -5540 -1151 -866 -2497 -1412 -3920 -1589 -379 -47 -523 -55 -1020 -55 -497 0 -641 8 -1020 55 -1413 175 -2754 716 -3895 1571 -624 466 -1180 1021 -1645 1638 -866 1151 -1412 2497 -1589 3920 -47 379 -55 523 -55 1020 0 497 8 641 55 1020 273 2200 1434 4203 3209 5540 1249 940 2732 1504 4275 1625 299 23 289 23 740 20 280 -2 480 -9 600 -19z"
       id="path4" />
    <path
       d="M8630 15874 c0 -8 5 -12 10 -9 6 4 8 11 5 16 -9 14 -15 11 -15 -7z"
       id="path6" />
    <path
       d="M9535 15545 c-1192 -102 -2270 -556 -3185 -1341 -148 -127 -427 -406 -554 -554 -721 -840 -1167 -1830 -1311 -2905 -60 -454 -60 -1016 0 -1470 144 -1075 590 -2065 1311 -2905 127 -148 406 -427 554 -554 920 -789 2000 -1242 3200 -1341 224 -19 656 -19 880 0 1200 99 2280 552 3200 1341 148 127 427 406 554 554 721 840 1167 1830 1311 2905 60 454 60 1016 0 1470 -144 1075 -590 2065 -1311 2905 -127 148 -406 427 -554 554 -920 790 -1998 1241 -3200 1341 -214 18 -685 18 -895 0z m975 -170 c1129 -116 2155 -556 3005 -1286 154 -133 421 -400 554 -554 596 -694 1011 -1532 1196 -2416 81 -388 109 -678 109 -1109 0 -351 -7 -468 -50 -769 -143 -1011 -581 -1971 -1255 -2756 -133 -154 -400 -421 -554 -554 -694 -596 -1532 -1011 -2416 -1196 -181 -37 -439 -76 -644 -97 -172 -17 -758 -17 -930 0 -724 72 -1346 250 -1964 562 -523 264 -966 585 -1381 1000 -415 415 -736 858 -1000 1381 -312 618 -490 1240 -562 1964 -17 172 -17 758 0 930 72 724 250 1346 562 1964 264 523 585 966 1000 1381 586 586 1286 1023 2067 1290 473 162 887 242 1468 284 119 9 650 -4 795 -19z"
       id="path8" />
    <path
       d="M7340 14237 c0 -2 -61 -301 -136 -663 -74 -363 -203 -997 -286 -1411 l-150 -752 -152 -153 c-903 -911 -1211 -2103 -836 -3238 361 -1096 1319 -1981 2605 -2405 701 -232 1479 -308 2245 -219 1391 161 2621 883 3271 1920 561 896 639 1959 213 2909 -167 373 -408 718 -720 1033 l-152 153 -150 752 c-156 776 -420 2069 -425 2073 -10 11 -931 -1329 -1196 -1739 -58 -90 -66 -99 -90 -94 -14 3 -105 23 -201 46 -192 45 -410 81 -650 108 -120 13 -239 17 -525 17 -286 0 -405 -4 -525 -17 -240 -27 -458 -63 -650 -108 -96 -23 -187 -43 -202 -46 -24 -5 -31 3 -79 79 -246 385 -1209 1784 -1209 1755z m325 -980 c250 -363 591 -876 700 -1052 54 -88 100 -161 101 -163 1 -2 55 12 121 32 915 274 1921 274 2836 0 66 -20 120 -34 121 -32 1 2 47 75 101 163 158 256 850 1284 865 1285 3 0 18 -60 32 -132 15 -73 116 -576 225 -1118 l198 -985 186 -185 c202 -201 315 -337 443 -530 237 -357 380 -711 453 -1120 21 -119 26 -187 30 -380 6 -252 -7 -413 -47 -610 -288 -1415 -1689 -2529 -3435 -2734 -1163 -137 -2337 137 -3230 753 -271 187 -592 482 -779 716 -242 304 -437 668 -540 1008 -132 434 -153 919 -60 1358 124 588 429 1115 917 1585 l145 139 60 315 c99 512 386 1920 392 1920 3 -1 77 -105 165 -233z"
       id="path10" />
    <path
       d="M7525 9908 c-154 -193 -281 -355 -283 -360 -2 -4 92 -8 210 -8 l213 0 360 360 360 360 -290 -1 -290 0 -280 -351z"
       id="path12" />
    <path
       d="M11985 9900 l360 -360 214 2 213 3 -286 358 -286 357 -288 0 -287 0 360 -360z"
       id="path14" />
    <path
       d="M8837 9651 c-65 -38 -120 -71 -123 -74 -3 -3 286 -514 642 -1137 355 -622 650 -1128 654 -1123 7 8 1290 2253 1290 2258 0 5 -250 145 -257 145 -5 0 -71 -112 -148 -248 l-141 -247 -749 -2 -750 -2 -140 246 c-77 136 -144 248 -150 249 -5 2 -63 -28 -128 -65z m1733 -740 c0 -20 -563 -992 -571 -984 -6 6 -517 896 -560 976 -9 16 21 17 561 17 322 0 570 -4 570 -9z"
       id="path16" />
    <path
       d="M16955 13600 c-3 -5 -4 -10 -1 -10 2 0 12 -3 20 -6 12 -5 15 -2 10 10 -7 18 -20 21 -29 6z"
       id="path18" />
    <path
       d="M17487 12284 c-3 -19 -1 -24 10 -20 8 3 16 6 18 6 2 0 1 9 -2 20 -7 28 -20 25 -26 -6z"
       id="path20" />
    <path
       d="M4800 6934 c0 -8 5 -12 10 -9 6 4 8 11 5 16 -9 14 -15 11 -15 -7z"
       id="path22" />
    <path
       d="M5197 6513 c-13 -12 -7 -19 39 -52 l46 -32 -21 28 c-50 68 -52 69 -64 56z"
       id="path24" />
  </g>
</svg>
