<svg xmlns="http://www.w3.org/2000/svg" version="1.0" width="1333.333" height="1333.333" viewBox="0 0 1000 1000">
<style type="text/css">
@media (prefers-color-scheme: light) { path { fill: #000; } ellipse { fill: #ff0; } }
@media (prefers-color-scheme: dark) { path { fill: #ff0; } ellipse { fill: #000; } }
</style>
<!--
<ellipse cx="525.424" cy="489.407" rx="360.169" ry="294.492" style="fill:#ff0;stroke-width:.77014446"/>
-->
<ellipse cx="525.424" cy="489.407" rx="360.169" ry="294.492" fill="#ff0"/><path d="M4690 9160c-870-73-1628-374-2312-918-171-136-484-449-620-620-515-646-806-1345-905-2172-24-203-24-697 0-900 99-827 390-1526 905-2172 136-171 449-484 620-620 646-515 1345-806 2172-905 108-13 222-17 450-17s342 4 450 17c827 99 1526 390 2172 905 171 136 484 449 620 620 515 646 806 1345 905 2172 24 203 24 697 0 900-99 827-390 1526-905 2172-136 171-449 484-620 620-643 512-1350 808-2162 903-158 19-616 28-770 15zm-125-3612c242-752 443-1364 446-1360 4 5 727 2245 857 2655l24 77h728l5-22c3-13 142-876 310-1918s307-1905 310-1917l5-23h-728l-6 28c-3 15-89 545-191 1177-102 633-186 1153-188 1158-1 4-173-525-383-1175l-381-1183-364-3-365-2-379 1180c-245 760-383 1173-387 1162-6-13-168-1005-168-1026 0-3 72-6 160-6h160v-390l-192-2-192-3-7-35c-4-19-10-56-14-82l-6-48h411v-390h-476l-28-180-28-180h-364c-200 0-364 3-364 8 0 4 13 85 28 180l28 172h-646v390h708l11 63c6 35 11 73 11 85v22h-730v390h798l5 23c3 12 96 590 208 1285l203 1262 365-2 366-3z" transform="matrix(.1 0 0 -.1 12.712 1000)" fill="#000"/></svg>
