<svg xmlns:osb="http://www.openswatchbook.org/uri/2009/osb" xmlns="http://www.w3.org/2000/svg" xmlns:xlink="http://www.w3.org/1999/xlink" viewBox="0 0 2000 2000" height="2666.667" width="2666.667" version="1.0"><defs><linearGradient id="a" osb:paint="solid"><stop style="stop-color:#fff;stop-opacity:1" offset="0"/></linearGradient><linearGradient xlink:href="#a" id="b" x1="681.77" y1="754.94" x2="1320.367" y2="754.94" gradientUnits="userSpaceOnUse"/></defs><ellipse ry="887.712" rx="880.23" cy="1014.831" cx="992.651" style="fill:#ffce00;stroke-width:.85988593"/><ellipse style="fill:#fff;fill-opacity:1;stroke-width:.60357589" cx="1004.237" cy="1104.873" rx="425.847" ry="354.873"/><path style="fill:url(#b);stroke:#000e00;stroke-width:.75px;stroke-linecap:butt;stroke-linejoin:miter;stroke-opacity:0;fill-opacity:1" d="M682.203 934.322 734 576.3l138.881 239.378 260.593-6.356 125-205.508 61.441 326.27z"/><path d="M962 107.6c-49.4 2.7-84.5 6.7-124.5 14-257.8 47.2-482.6 206.7-613.4 435.3-61.4 107.2-100.4 229-112.5 351.1-3.4 34.5-4 47.6-4 91 0 52 1.7 79.4 8 124.5 22.7 163.4 92.1 319.9 198 446.5 32.5 38.9 75.5 81.9 114.4 114.4 126.6 105.9 283.1 175.3 446.5 198 45.1 6.3 72.5 8 124.5 8s79.4-1.7 124.5-8c272.2-37.9 513-201.3 650.4-441.3 61.4-107.2 100.4-229 112.5-351.1 3.4-34.5 4-47.6 4-91 0-52-1.7-79.4-8-124.5-46.5-334.2-280.7-615.2-601.8-722-71.7-23.9-138.7-37.1-220.1-43.6-13-1-86.2-2-98.5-1.3zm74 30.4c125 5.8 239 35.4 349.3 90.6 119.2 59.7 223.3 146.8 303.9 254.5 141.8 189.3 199 426.8 159.2 661.7-34 201.2-140.5 385.5-299 517.3-115.9 96.4-256.9 161.4-404.6 186.3-121.8 20.6-244 15.5-363.3-15.4-131.6-34-256.8-101.3-358.5-192.9-15.8-14.1-46.5-44.7-61.4-61.1-178.9-196.5-256.6-462.4-212-725.8 34-201.2 140.5-385.5 299-517.3C612.6 199.4 824.1 128.2 1036 138z"/><path d="M967 162.1c-155.8 5.8-305.2 54.5-435.5 142-88.6 59.5-167.9 138.8-227.4 227.4-73.6 109.6-119.8 232.5-136 362-22.3 177.4 11.9 355.3 98.1 511.3 63.2 114.3 156.5 216.1 265.3 289.1 109.6 73.6 232.5 119.8 362 136 177.4 22.3 355.3-11.9 511.3-98.1 114.3-63.2 216.1-156.5 289.1-265.3 46.5-69.3 82.5-144.6 106.1-222 62.6-205.7 44.2-428.2-51.2-618.8-41.2-82.4-92.3-153.3-157.8-218.7-107.5-107.5-238.1-182.1-384.5-219.5-59.2-15.2-114.8-23.1-179.3-25.5-28-1-30-1-60.2.1zm99.5 18.3c106.2 9.4 202.3 36 295 81.6 114.9 56.5 216.4 140.5 293.5 243 86.6 115.1 141.2 249.7 158.9 392 4.7 37.9 5.5 52.3 5.5 102s-.8 64.1-5.5 102c-27.3 220-143.4 420.3-320.9 554-115.1 86.6-249.7 141.2-392 158.9-37.9 4.7-52.3 5.5-102 5.5s-64.1-.8-102-5.5c-141.3-17.5-275.4-71.6-389.5-157.1-62.4-46.6-118-102.1-164.5-163.8-86.6-115.1-141.2-249.7-158.9-392-4.7-37.9-5.5-52.3-5.5-102s.8-64.1 5.5-102C211.4 677 327.5 476.7 505 343c124.9-94 273.2-150.4 427.5-162.5 29.9-2.3 28.9-2.3 74-2 28 .2 48 .9 60 1.9z"/><path d="M863 412.6c0 .8.5 1.2 1 .9.6-.4.8-1.1.5-1.6-.9-1.4-1.5-1.1-1.5.7zM953.5 445.5c-119.2 10.2-227 55.6-318.5 134.1-14.8 12.7-42.7 40.6-55.4 55.4-72.1 84-116.7 183-131.1 290.5-6 45.4-6 101.6 0 147 14.4 107.5 59 206.5 131.1 290.5 12.7 14.8 40.6 42.7 55.4 55.4 92 78.9 200 124.2 320 134.1 22.4 1.9 65.6 1.9 88 0 120-9.9 228-55.2 320-134.1 14.8-12.7 42.7-40.6 55.4-55.4 72.1-84 116.7-183 131.1-290.5 6-45.4 6-101.6 0-147-14.4-107.5-59-206.5-131.1-290.5-12.7-14.8-40.6-42.7-55.4-55.4-92-79-199.8-124.1-320-134.1-21.4-1.8-68.5-1.8-89.5 0zm97.5 17c112.9 11.6 215.5 55.6 300.5 128.6 15.4 13.3 42.1 40 55.4 55.4 59.6 69.4 101.1 153.2 119.6 241.6 8.1 38.8 10.9 67.8 10.9 110.9 0 35.1-.7 46.8-5 76.9-14.3 101.1-58.1 197.1-125.5 275.6-13.3 15.4-40 42.1-55.4 55.4-69.4 59.6-153.2 101.1-241.6 119.6-18.1 3.7-43.9 7.6-64.4 9.7-17.2 1.7-75.8 1.7-93 0-72.4-7.2-134.6-25-196.4-56.2-52.3-26.4-96.6-58.5-138.1-100s-73.6-85.8-100-138.1c-31.2-61.8-49-124-56.2-196.4-1.7-17.2-1.7-75.8 0-93 7.2-72.4 25-134.6 56.2-196.4 26.4-52.3 58.5-96.6 100-138.1 58.6-58.6 128.6-102.3 206.7-129 47.3-16.2 88.7-24.2 146.8-28.4 11.9-.9 65 .4 79.5 1.9z"/><path d="M734 576.3c0 .2-6.1 30.1-13.6 66.3-7.4 36.3-20.3 99.7-28.6 141.1l-15 75.2-15.2 15.3c-90.3 91.1-121.1 210.3-83.6 323.8 36.1 109.6 131.9 198.1 260.5 240.5 70.1 23.2 147.9 30.8 224.5 21.9 139.1-16.1 262.1-88.3 327.1-192 56.1-89.6 63.9-195.9 21.3-290.9-16.7-37.3-40.8-71.8-72-103.3l-15.2-15.3-15-75.2c-15.6-77.6-42-206.9-42.5-207.3-1-1.1-93.1 132.9-119.6 173.9-5.8 9-6.6 9.9-9 9.4-1.4-.3-10.5-2.3-20.1-4.6-19.2-4.5-41-8.1-65-10.8-12-1.3-23.9-1.7-52.5-1.7s-40.5.4-52.5 1.7c-24 2.7-45.8 6.3-65 10.8-9.6 2.3-18.7 4.3-20.2 4.6-2.4.5-3.1-.3-7.9-7.9C830.3 713.3 734 573.4 734 576.3zm32.5 98c25 36.3 59.1 87.6 70 105.2 5.4 8.8 10 16.1 10.1 16.3.1.2 5.5-1.2 12.1-3.2 91.5-27.4 192.1-27.4 283.6 0 6.6 2 12 3.4 12.1 3.2.1-.2 4.7-7.5 10.1-16.3 15.8-25.6 85-128.4 86.5-128.5.3 0 1.8 6 3.2 13.2 1.5 7.3 11.6 57.6 22.5 111.8l19.8 98.5 18.6 18.5c20.2 20.1 31.5 33.7 44.3 53 23.7 35.7 38 71.1 45.3 112 2.1 11.9 2.6 18.7 3 38 .6 25.2-.7 41.3-4.7 61-28.8 141.5-168.9 252.9-343.5 273.4-116.3 13.7-233.7-13.7-323-75.3-27.1-18.7-59.2-48.2-77.9-71.6-24.2-30.4-43.7-66.8-54-100.8-13.2-43.4-15.3-91.9-6-135.8 12.4-58.8 42.9-111.5 91.7-158.5l14.5-13.9 6-31.5c9.9-51.2 38.6-192 39.2-192 .3.1 7.7 10.5 16.5 23.3z"/><path d="M752.5 1009.2c-15.4 19.3-28.1 35.5-28.3 36-.2.4 9.2.8 21 .8h21.3l36-36 36-36-29 .1h-29l-28 35.1zM1198.5 1010l36 36 21.4-.2 21.3-.3-28.6-35.8L1220 974h-57.5l36 36zM883.7 1034.9c-6.5 3.8-12 7.1-12.3 7.4-.3.3 28.6 51.4 64.2 113.7 35.5 62.2 65 112.8 65.4 112.3.7-.8 129-225.3 129-225.8s-25-14.5-25.7-14.5c-.5 0-7.1 11.2-14.8 24.8l-14.1 24.7-74.9.2-75 .2-14-24.6c-7.7-13.6-14.4-24.8-15-24.9-.5-.2-6.3 2.8-12.8 6.5zm173.3 74c0 2-56.3 99.2-57.1 98.4-.6-.6-51.7-89.6-56-97.6-.9-1.6 2.1-1.7 56.1-1.7 32.2 0 57 .4 57 .9zM1695.5 640c-.3.5-.4 1-.1 1 .2 0 1.2.3 2 .6 1.2.5 1.5.2 1-1-.7-1.8-2-2.1-2.9-.6zM1748.7 771.6c-.3 1.9-.1 2.4 1 2 .8-.3 1.6-.6 1.8-.6.2 0 .1-.9-.2-2-.7-2.8-2-2.5-2.6.6zM480 1306.6c0 .8.5 1.2 1 .9.6-.4.8-1.1.5-1.6-.9-1.4-1.5-1.1-1.5.7zM519.7 1348.7c-1.3 1.2-.7 1.9 3.9 5.2l4.6 3.2-2.1-2.8c-5-6.8-5.2-6.9-6.4-5.6z"/></svg>