<svg xmlns="http://www.w3.org/2000/svg" version="1.0" width="1333.333" height="1333.333" viewBox="0 0 1000 1000">
<style type="text/css">
@media (prefers-color-scheme: light) { ellipse { fill: #ff0; } path { fill: #000; } }
@media (prefers-color-scheme: dark) { ellipse { fill: #000; } path { fill: #ff0; } }
</style>
<ellipse fill="#ff0" cx="496.372" cy="500.605" rx="417.775" ry="414.752"/><path d="M469.5 77.1C366 85.3 272.9 128 200.4 200.4 138.6 262.2 97.5 341 82.6 426.2c-5 28.4-6 41.1-6 74.3 0 33.2 1 45.9 6 74.3C111.2 738.1 235.3 871.6 396 911.9c80 20.1 163.5 16.9 240.6-9.3C762 860 860 762 902.6 636.6c38.8-114.1 26.5-242.2-33.1-346.2C792.8 156.7 651.1 75 498.1 76.1c-10.2.1-23.1.5-28.6 1zM545 93.5c81.5 9.4 155.1 40.6 217.5 92.4 14.9 12.4 38.5 35.9 51.2 51.1 47.8 57 79.3 125.5 90.7 197 4.2 26.2 5 37.2 5 66.5 0 15.9-.5 33-1.2 39.5-5.9 53.4-19 98.6-41.8 144-39.7 79.1-103.3 142.7-182.4 182.4-45.4 22.8-90.6 35.9-144 41.8-15 1.6-64 1.6-79 0-53.4-5.9-98.6-19-144-41.8-39.9-20.1-72.2-43.3-104.4-75.2-54.2-53.6-91.4-118.9-109.6-192.7-8.3-33.5-11.4-60.5-11.4-98 0-29.3.8-40.3 5-66.5 11.4-71.5 42.9-140 90.7-197 12.7-15.2 36.3-38.7 51.2-51.1 48.1-39.9 103.8-68.1 164-82.9 23.7-5.8 41.6-8.6 75.5-11.4 9.8-.8 54.3.4 67 1.9z"/><path d="M339.6 311.7c-.3 1.6-9.6 58.8-20.6 127.3-11 68.5-20.2 125.1-20.5 125.7-.3 1-9.4 1.3-40.5 1.3h-40l.2 19.2.3 19.3 36.8.3c24.7.1 36.7.6 36.7 1.3 0 .5-.5 4.1-1.1 7.9l-1.2 7-35.6.2-35.6.3-.3 19.2-.2 19.3h32.5c25.8 0 32.5.3 32.5 1.3 0 .7-1.1 8.1-2.5 16.5s-2.5 15.9-2.5 16.7c0 1.3 4.9 1.5 36 1.5h36l.4-2.2c.3-1.3 1.4-8.2 2.6-15.3 1.1-7.2 2.3-14.2 2.6-15.7l.6-2.8H403v-39h-20.6c-19.1 0-20.5-.1-20-1.8.2-.9.7-3.7 1.1-6.2 1.3-8.7-.6-8 20.6-8H403v-39h-32.2l.6-2.8c.3-1.5 4.2-25.2 8.6-52.7 4.4-27.5 8.2-50.4 8.3-50.8.1-.5 17.4 52.4 38.4 117.5l38.1 118.3 36.4.3 36.4.2 37.8-117.2c20.8-64.5 38.1-117.6 38.4-118 .4-.4 9.2 52.4 19.7 117.3l19 117.9H725.2l-.5-2.3c-.3-1.2-14.4-88.3-31.3-193.5L662.6 309l-36.5.2-36.5.3-44 136.7c-24.2 75.2-44.3 136.2-44.7 135.5-.5-.9-75.6-233.6-85.5-264.9l-2.5-7.8H340.2l-.6 2.7z"/></svg>
