<?xml version="1.0" standalone="no"?>
<!DOCTYPE svg PUBLIC "-//W3C//DTD SVG 20010904//EN"
 "http://www.w3.org/TR/2001/REC-SVG-20010904/DTD/svg10.dtd">
<svg version="1.0" xmlns="http://www.w3.org/2000/svg"
 width="1000.000000pt" height="1000.000000pt" viewBox="0 0 1000.000000 1000.000000"
 preserveAspectRatio="xMidYMid meet">
<style type="text/css">
@media (prefers-color-scheme: light) { g { fill: #000; } }
@media (prefers-color-scheme: dark) { g { fill: #ff0; } }
</style>
<g transform="translate(0.000000,1000.000000) scale(0.100000,-0.100000)"
fill="#000000" stroke="none">
<path d="M2460 6090 l-345 -2140 -667 0 -668 0 0 -325 0 -325 616 0 616 0 -5
-22 c-3 -13 -14 -76 -23 -140 l-18 -118 -593 0 -593 0 0 -325 0 -325 540 0
540 0 -6 -38 c-3 -20 -25 -154 -48 -297 l-42 -260 600 -3 c329 -1 601 0 604 3
2 2 24 127 48 277 24 150 46 283 49 296 l5 22 395 0 395 0 0 325 0 325 -343 2
-343 3 18 115 c10 63 20 125 23 138 l5 22 320 0 320 0 0 325 0 325 -268 2
-268 3 141 877 c78 483 143 880 146 883 3 2 291 -883 640 -1968 l635 -1972
605 -3 605 -2 633 1967 c348 1083 636 1971 640 1975 4 4 132 -770 285 -1720
153 -950 297 -1838 319 -1974 l40 -248 604 0 605 0 -6 27 c-3 16 -233 1441
-511 3168 -278 1727 -510 3168 -516 3203 l-11 62 -606 -2 -606 -3 -735 -2283
c-404 -1255 -738 -2279 -742 -2275 -4 5 -337 1033 -740 2286 l-733 2277 -605
0 -606 0 -345 -2140z"/>
</g>
</svg>
