<?xml version="1.0" encoding="UTF-8" standalone="no"?>
<svg
   xmlns:osb="http://www.openswatchbook.org/uri/2009/osb"
   xmlns:dc="http://purl.org/dc/elements/1.1/"
   xmlns:cc="http://creativecommons.org/ns#"
   xmlns:rdf="http://www.w3.org/1999/02/22-rdf-syntax-ns#"
   xmlns:svg="http://www.w3.org/2000/svg"
   xmlns="http://www.w3.org/2000/svg"
   xmlns:xlink="http://www.w3.org/1999/xlink"
   xmlns:sodipodi="http://sodipodi.sourceforge.net/DTD/sodipodi-0.dtd"
   xmlns:inkscape="http://www.inkscape.org/namespaces/inkscape"
   viewBox="0 0 1124.9999 1124.9999"
   height="1500"
   width="1500"
   version="1.0"
   id="svg26"
   sodipodi:docname="monacoin-face.svg"
   inkscape:export-filename="/tmp/work/MonaCoin.Icon.20220521092535/docs/asset/image/monacoin.svg.png"
   inkscape:export-xdpi="96.199997"
   inkscape:export-ydpi="96.199997"
   inkscape:version="0.92.4 (5da689c313, 2019-01-14)">
  <metadata
     id="metadata30">
    <rdf:RDF>
      <cc:Work
         rdf:about="">
        <dc:format>image/svg+xml</dc:format>
        <dc:type
           rdf:resource="http://purl.org/dc/dcmitype/StillImage" />
        <dc:title></dc:title>
      </cc:Work>
    </rdf:RDF>
  </metadata>
  <sodipodi:namedview
     pagecolor="#ffffff"
     bordercolor="#666666"
     borderopacity="1"
     objecttolerance="10"
     gridtolerance="10"
     guidetolerance="10"
     inkscape:pageopacity="0"
     inkscape:pageshadow="2"
     inkscape:window-width="1920"
     inkscape:window-height="1027"
     id="namedview28"
     showgrid="false"
     inkscape:zoom="0.50063154"
     inkscape:cx="897.93216"
     inkscape:cy="750.98781"
     inkscape:window-x="0"
     inkscape:window-y="36"
     inkscape:window-maximized="1"
     inkscape:current-layer="svg26"
     fit-margin-top="0"
     fit-margin-left="0"
     fit-margin-right="0"
     fit-margin-bottom="0" />
  <defs
     id="defs6">
    <linearGradient
       id="a"
       osb:paint="solid">
      <stop
         style="stop-color:#fff;stop-opacity:1"
         offset="0"
         id="stop2" />
    </linearGradient>
    <linearGradient
       xlink:href="#a"
       id="b"
       x1="681.77002"
       y1="754.94"
       x2="1320.3669"
       y2="754.94"
       gradientUnits="userSpaceOnUse"
       gradientTransform="translate(-435,-434.92512)" />
  </defs>
  <ellipse
     style="opacity:1;fill:#ffce00;fill-opacity:1;stroke:none;stroke-width:0;stroke-miterlimit:4;stroke-dasharray:none;stroke-opacity:1"
     id="path823"
     cx="565.47211"
     cy="567.46057"
     rx="548.30737"
     ry="546.44574" />
  <ellipse
     style="fill:#ffffff;fill-opacity:1;stroke-width:0.60357589"
     cx="569.237"
     cy="669.94794"
     rx="425.84698"
     ry="354.87299"
     id="ellipse10" />
  <path
     style="fill:url(#b);fill-opacity:1;stroke:#000e00;stroke-width:0.75px;stroke-linecap:butt;stroke-linejoin:miter;stroke-opacity:0"
     d="m 247.203,499.39688 51.797,-358.022 138.881,239.378 260.593,-6.356 125,-205.508 61.441,326.27 z"
     id="path12"
     inkscape:connector-curvature="0" />
  <path
     d="m 428,-22.325112 c 0,0.800001 0.5,1.200001 1,0.900001 0.6,-0.4 0.8,-1.100001 0.5,-1.600001 -0.9,-1.4 -1.5,-1.1 -1.5,0.7 z m 90.5,32.9 c -119.2,10.2 -227,55.6 -318.5,134.099972 -14.8,12.7 -42.7,40.6 -55.4,55.4 -72.1,84 -116.7,183 -131.100001,290.5 -5.9999998,45.4 -5.9999998,101.6 0,147 C 27.9,745.07483 72.5,844.07479 144.6,928.07479 c 12.7,14.8 40.6,42.7 55.4,55.40008 92,78.90003 200,124.20003 320,134.10003 22.4,1.9 65.6,1.9 88,0 120,-9.9 228,-55.2 320,-134.10003 14.8,-12.70008 42.7,-40.60008 55.4,-55.40008 72.1,-84 116.7,-182.99996 131.1,-290.49993 6,-45.4 6,-101.6 0,-147 -14.4,-107.5 -59,-206.5 -131.1,-290.5 -12.7,-14.8 -40.6,-42.7 -55.4,-55.4 C 836,65.674888 728.2,20.574888 608,10.574888 c -21.4,-1.8000002 -68.5,-1.8000002 -89.5,0 z m 97.5,17 c 112.9,11.6 215.5,55.599979 300.5,128.599972 15.4,13.3 42.1,40 55.4,55.4 59.6,69.4 101.1,153.2 119.6,241.6 8.1,38.8 10.9,67.8 10.9,110.9 0,35.1 -0.7,46.8 -5,76.9 -14.3,101.09997 -58.1,197.09993 -125.5,275.59993 -13.3,15.4 -40,42.1 -55.4,55.4 -69.4,59.60011 -153.2,101.10011 -241.6,119.60011 -18.1,3.7 -43.9,7.6 -64.4,9.7 -17.2,1.7 -75.8,1.7 -93,0 -72.4,-7.2 -134.6,-25 -196.4,-56.2 -52.3,-26.4 -96.6,-58.50003 -138.1,-100.00011 -41.5,-41.5 -73.6,-85.8 -100,-138.09996 -31.2,-61.8 -49,-124 -56.2,-196.39997 -1.7,-17.2 -1.7,-75.8 0,-93 7.2,-72.4 25,-134.6 56.2,-196.4 26.4,-52.3 58.5,-96.6 100,-138.1 58.6,-58.6 128.6,-102.299993 206.7,-128.999972 47.3,-16.2 88.7,-24.2 146.8,-28.4 11.9,-0.9 65,0.4 79.5,1.9 z"
     id="path18"
     inkscape:connector-curvature="0" />
  <path
     d="m 299,141.37488 c 0,0.2 -6.1,30.1 -13.6,66.3 -7.4,36.3 -20.3,99.7 -28.6,141.1 l -15,75.2 -15.2,15.3 c -90.3,91.1 -121.1,210.3 -83.6,323.79997 36.1,109.59996 131.9,198.09996 260.5,240.50005 70.1,23.2 147.9,30.8 224.5,21.9 139.1,-16.1 262.1,-88.30009 327.1,-192.00009 56.1,-89.59996 63.9,-195.89993 21.3,-290.89993 -16.7,-37.3 -40.8,-71.8 -72,-103.3 l -15.2,-15.3 -15,-75.2 c -15.6,-77.6 -42,-206.9 -42.5,-207.3 -1,-1.1 -93.1,132.9 -119.6,173.9 -5.8,9 -6.6,9.9 -9,9.4 -1.4,-0.3 -10.5,-2.3 -20.1,-4.6 -19.2,-4.5 -41,-8.1 -65,-10.8 -12,-1.3 -23.9,-1.7 -52.5,-1.7 -28.6,0 -40.5,0.4 -52.5,1.7 -24,2.7 -45.8,6.3 -65,10.8 -9.6,2.3 -18.7,4.3 -20.2,4.6 -2.4,0.5 -3.1,-0.3 -7.9,-7.9 -24.6,-38.5 -120.9,-178.4 -120.9,-175.5 z m 32.5,98 c 25,36.3 59.1,87.6 70,105.2 5.4,8.8 10,16.1 10.1,16.3 0.1,0.2 5.5,-1.2 12.1,-3.2 91.5,-27.4 192.1,-27.4 283.6,0 6.6,2 12,3.4 12.1,3.2 0.1,-0.2 4.7,-7.5 10.1,-16.3 15.8,-25.6 85,-128.4 86.5,-128.5 0.3,0 1.8,6 3.2,13.2 1.5,7.3 11.6,57.6 22.5,111.8 l 19.8,98.5 18.6,18.5 c 20.2,20.1 31.5,33.7 44.3,53 23.7,35.7 38,71.1 45.3,112 2.1,11.9 2.6,18.7 3,38 0.6,25.19997 -0.7,41.29997 -4.7,60.99997 -28.8,141.49996 -168.9,252.89996 -343.5,273.40005 -116.3,13.7 -233.7,-13.70002 -323,-75.30009 -27.1,-18.7 -59.2,-48.2 -77.9,-71.6 -24.2,-30.4 -43.7,-66.79996 -54,-100.79996 -13.2,-43.4 -15.3,-91.89997 -6,-135.79997 12.4,-58.8 42.9,-111.5 91.7,-158.5 l 14.5,-13.9 6,-31.5 c 9.9,-51.2 38.6,-192 39.2,-192 0.3,0.1 7.7,10.5 16.5,23.3 z"
     id="path20"
     inkscape:connector-curvature="0" />
  <path
     style="fill:#ff0000;fill-opacity:1;stroke:none;stroke-width:0.74999988px;stroke-linecap:butt;stroke-linejoin:miter;stroke-opacity:1"
     d="M 562.881,791.76985 645.508,668.88888 486.61,673.12585 Z"
     id="path22"
     inkscape:connector-curvature="0" />
  <path
     d="m 317.5,574.27488 c -15.4,19.3 -28.1,35.5 -28.3,36 -0.2,0.4 9.2,0.8 21,0.8 h 21.3 l 36,-36 36,-36 -29,0.1 h -29 z m 446,0.8 36,36 21.4,-0.2 21.3,-0.3 -28.6,-35.8 -28.6,-35.7 h -57.5 z m -314.8,24.9 c -6.5,3.8 -12,7.1 -12.3,7.4 -0.3,0.3 28.6,51.4 64.2,113.69997 35.5,62.2 65,112.79996 65.4,112.29996 0.7,-0.8 129,-225.29993 129,-225.79993 0,-0.5 -25,-14.5 -25.7,-14.5 -0.5,0 -7.1,11.2 -14.8,24.8 l -14.1,24.7 -74.9,0.2 -75,0.2 -14,-24.6 c -7.7,-13.6 -14.4,-24.8 -15,-24.9 -0.5,-0.2 -6.3,2.8 -12.8,6.5 z M 622,673.97485 c 0,2 -56.3,99.2 -57.1,98.4 -0.6,-0.6 -51.7,-89.6 -56,-97.6 -0.9,-1.6 2.1,-1.7 56.1,-1.7 32.2,0 57,0.4 57,0.9 z m 638.5,-468.89997 c -0.3,0.5 -0.4,1 -0.1,1 0.2,0 1.2,0.3 2,0.6 1.2,0.5 1.5,0.2 1,-1 -0.7,-1.8 -2,-2.1 -2.9,-0.6 z m 53.2,131.6 c -0.3,1.9 -0.1,2.4 1,2 0.8,-0.3 1.6,-0.6 1.8,-0.6 0.2,0 0.1,-0.9 -0.2,-2 -0.7,-2.8 -2,-2.5 -2.6,0.6 z M 45,871.67481 c 0,0.8 0.5,1.2 1,0.9 0.6,-0.4 0.8,-1.1 0.5,-1.6 -0.9,-1.4 -1.5,-1.1 -1.5,0.7 z m 39.7,42.1 c -1.3,1.2 -0.7,1.9 3.9,5.2 l 4.6,3.2 -2.1,-2.8 c -5,-6.8 -5.2,-6.9 -6.4,-5.6 z"
     id="path24"
     inkscape:connector-curvature="0" />
</svg>
